<?xml version="1.0" encoding="UTF-8"?>
<svg width="148px" height="34px" viewBox="0 0 148 34" version="1.1" xmlns="http://www.w3.org/2000/svg" xmlns:xlink="http://www.w3.org/1999/xlink">
    <title>BB_Logo white</title>
    <g id="Desktop" stroke="none" stroke-width="1" fill="none" fill-rule="evenodd">
        <g id="Home" transform="translate(-90, -18)" fill="#1f1f1f" fill-rule="nonzero">
            <g id="BB_Logo-white" transform="translate(90, 18)">
                <path d="M55,31.5922179 C55,32.3066148 54.7825243,32.8622568 54.3203883,33.3120623 C53.8582524,33.7618677 53.2601942,34 52.5262136,34 L41,34 L41,0 L52.4446602,0 C53.1786408,0 53.7495146,0.211673152 54.2116505,0.661478599 C54.6737864,1.11128405 54.9184466,1.69338521 54.9184466,2.4077821 L54.9184466,12.5151751 C54.9184466,13.414786 54.5106796,14.155642 53.6679612,14.7642023 L51.2213592,16.1929961 L53.831068,17.8599222 C54.6194175,18.3097276 55,19.0505837 55,20.029572 L55,31.5922179 Z M51.792233,12.8856031 L51.792233,2.67237354 L44.0990291,2.67237354 L44.0990291,14.9494163 L48.6932039,14.9494163 L51.792233,12.8856031 L51.792233,12.8856031 Z M51.8737864,31.3276265 L51.8737864,19.5797665 L48.7203883,17.5688716 L44.0990291,17.5688716 L44.0990291,31.3276265 L51.8737864,31.3276265 Z" id="Shape"></path>
                <path d="M62,8.59892086 L59,8.59892086 L59,5 L62,5 L62,8.59892086 L62,8.59892086 Z M61.9459459,34 L59.027027,34 L59.027027,13.1627698 L61.9459459,13.1627698 L61.9459459,34 L61.9459459,34 Z" id="Shape"></path>
                <path d="M77,31.5556946 C77,33.1852315 76.2178899,34 74.6536697,34 L68.3463303,34 C66.7821101,34 66,33.1852315 66,31.5556946 L66,26.7984981 L68.7247706,26.7984981 L68.7247706,31.5031289 L74.2752294,31.5031289 L74.2752294,27.3241552 L67.0848624,21.1739675 C66.3784404,20.5957447 66.0504587,19.8598248 66.0504587,18.9399249 L66.0504587,15.4443054 C66.0504587,13.8147685 66.8325688,13 68.3715596,13 L74.6284404,13 C76.1674312,13 76.9495413,13.8147685 76.9495413,15.4443054 L76.9495413,19.6232791 L74.2752294,19.6232791 L74.2752294,15.4705882 L68.7247706,15.4705882 L68.7247706,19.1501877 L75.9908257,25.3003755 C76.6720183,25.8523154 77,26.6145181 77,27.5869837 L77,31.5556946 Z" id="Path"></path>
                <path d="M94,31.5556946 C94,33.1852315 93.1602709,34 91.5079007,34 L84.4920993,34 C82.8126411,34 82,33.1852315 82,31.5556946 L82,15.4443054 C82,13.8147685 82.8126411,13 84.4920993,13 L91.5079007,13 C93.1602709,13 94,13.8147685 94,15.4443054 L94,19.6232791 L91.0744921,19.6232791 L91.0744921,15.5231539 L84.9525959,15.5231539 L84.9525959,31.4768461 L91.0744921,31.4768461 L91.0744921,26.7984981 L94,26.7984981 L94,31.5556946 Z" id="Path"></path>
                <path d="M109,34 L106.150327,34 L106.150327,15.4521401 L99.8496732,15.6108949 L99.8496732,34 L97,34 L97,0 L99.8496732,0 L99.8496732,13.4412451 C100.973856,13.2824903 102.098039,13.1501946 103.248366,13.0178988 C104.660131,12.8062257 105.784314,12.7268482 106.620915,12.7268482 C108.189542,12.7268482 109,13.5206226 109,15.0817121 L109,34 Z" id="Path"></path>
                <path d="M126,31.5556946 C126,33.1852315 125.189542,34 123.568627,34 L116.405229,34 C114.784314,34 114,33.1852315 114,31.5556946 L114,15.4443054 C114,13.8147685 114.784314,13 116.405229,13 L123.568627,13 C125.189542,13 126,13.8147685 126,15.4443054 L126,31.5556946 Z M123.124183,15.5231539 L116.849673,15.5231539 L116.849673,31.4768461 L123.124183,31.4768461 L123.124183,15.5231539 Z" id="Shape"></path>
                <path d="M138,2.54007782 L134.095775,2.54007782 L134.095775,12.859144 L137.543662,12.859144 L137.543662,15.3992218 L134.095775,15.3992218 L134.095775,34 L131.357746,34 L131.357746,15.3992218 L129,15.3992218 L129,12.859144 L131.357746,12.859144 L131.357746,2.43424125 C131.357746,0.793774319 132.143662,0 133.690141,0 L138,0 L138,2.54007782 Z" id="Path"></path>
                <path d="M148,2.54007782 L144.084746,2.54007782 L144.084746,12.859144 L147.542373,12.859144 L147.542373,15.3992218 L144.084746,15.3992218 L144.084746,34 L141.338983,34 L141.338983,15.3992218 L139,15.3992218 L139,12.859144 L141.338983,12.859144 L141.338983,2.43424125 C141.338983,0.793774319 142.127119,0 143.677966,0 L148,0 L148,2.54007782 Z" id="Path"></path>
                <g id="Group">
                    <path d="M31.5676582,15.5224922 L29.2662237,15.5224922 L29.2662237,31.3683041 L27.5507048,31.3683041 L27.5507048,22.1285004 L22.9045519,22.1285004 L22.9045519,31.3683041 L21.1890331,31.3683041 L21.1890331,15.5224922 L22.9045519,15.5224922 L22.9045519,20.5958813 L27.5507048,20.5958813 L27.5507048,15.5224922 L25.4667453,15.5224922 C26.5952928,15.5224922 27.507421,14.6155176 27.507421,13.4933465 L27.507421,2.0291457 C27.507421,0.90697459 26.5952928,0 25.4667453,0 L25.2059865,0 L25.2059865,11.7654759 L26.2479662,12.6073667 L26.2479662,13.9247893 L26.1181146,13.9247893 L25.1194187,13.1038933 C25.0106812,13.6434592 24.6855244,13.9027448 24.1428926,13.9027448 L19.8662361,13.9027448 C19.5621934,13.9027448 19.3014345,13.7946216 19.1061293,13.6004199 C18.8886543,13.4062182 18.8020866,13.1469326 18.8020866,12.823613 L18.8020866,0 L13.8297212,0 C12.7011737,0 11.7890455,0.90697459 11.7890455,2.0291457 L11.7890455,10.1898175 L8.57653853,10.1898175 L9.46544122,8.33282905 L9.46544122,8.22470592 L7.88082966,8.22470592 L6.96342296,10.1887678 L4.47196175,10.1887678 L4.47196175,8.22470592 L3.01720176,8.22470592 L3.01720176,10.1887678 L2.62659132,10.1887678 C1.17183134,10.1887678 0,11.3760227 0,12.8225632 L0,24.5880391 C0,26.0345796 1.17288704,27.1997901 2.62659132,27.1997901 L14.5676582,27.1997901 C14.8157486,27.1997901 15.0553934,27.1651487 15.2844812,27.1021643 L15.2844812,31.5824508 C15.2844812,32.9208682 16.3697448,34 17.6946532,34 L31.5687139,34 C32.9147364,34 34,32.9208682 34,31.5824508 L34,17.9379419 C34,16.5995245 32.9147364,15.5203927 31.5687139,15.5203927 L31.5676582,15.5224922 Z M4.47196175,11.2909939 L6.44823946,11.2909939 L4.47196175,15.5224922 L4.47196175,11.2909939 Z M14.5676582,26.1227577 L2.62553561,26.1227577 C1.77886108,26.1227577 1.08420791,25.4320294 1.08420791,24.5901386 L1.08420791,12.8246627 C1.08420791,11.9827719 1.77886108,11.2920436 2.62553561,11.2920436 L3.01614606,11.2920436 L3.01614606,24.4400259 L4.47090604,24.4400259 L4.47090604,16.6467628 L8.22710054,24.4400259 L9.83388189,24.4400259 L5.77364466,16.0421131 L8.04868658,11.2930933 L11.7879898,11.2930933 L11.7879898,13.495446 C11.7879898,14.6176171 12.700118,15.5245917 13.8286655,15.5245917 L16.1079302,15.5245917 L16.1079302,24.5922381 C16.1079302,25.1769428 15.7722164,25.6892155 15.2834254,25.9474513 C15.0691176,26.0608231 14.82525,26.1259069 14.5666025,26.1259069 L14.5676582,26.1227577 Z" id="Shape"></path>
                    <polygon id="Path" points="23.859964 12.1328846 22.2531826 10.7944673 22.2531826 9.47704468 22.3830342 9.47704468 23.8589083 10.7073389 23.8589083 0 20.1459976 0 20.1459976 12.7154898 23.8589083 12.7154898 23.8589083 12.1328846"></polygon>
                </g>
            </g>
        </g>
    </g>
</svg>