<?xml version="1.0" encoding="utf-8"?>
<!-- Generator: Adobe Illustrator 25.2.3, SVG Export Plug-In . SVG Version: 6.00 Build 0)  -->
<svg version="1.1" id="Ebene_1" xmlns="http://www.w3.org/2000/svg" xmlns:xlink="http://www.w3.org/1999/xlink" x="0px" y="0px"
	 viewBox="0 0 216 92" style="enable-background:new 0 0 216 92;" xml:space="preserve">
<style type="text/css">
	.st0{fill:#027E99;}
	.st1{fill:#FFD400;}
</style>
<g>
	<rect class="st0" width="216" height="46"/>
	<rect y="46" class="st1" width="216" height="46"/>
</g>
<g>
	<g>
		<path class="st1" d="M38.5,21.4h139c2.8,0,5.1,2.3,5.1,5.1v39c0,2.8-2.3,5.1-5.1,5.1h-139c-2.8,0-5.1-2.3-5.1-5.1v-39
			C33.4,23.7,35.7,21.4,38.5,21.4"/>
	</g>
	<g>
		<path d="M177.5,71h-139c-3,0-5.5-2.5-5.5-5.5v-39c0-3,2.5-5.5,5.5-5.5h139c3,0,5.5,2.5,5.5,5.5v39C183,68.5,180.5,71,177.5,71z
			 M38.5,21.8c-2.6,0-4.7,2.1-4.7,4.7v39c0,2.6,2.1,4.7,4.7,4.7h139c2.6,0,4.7-2.1,4.7-4.7v-39c0-2.6-2.1-4.7-4.7-4.7H38.5z"/>
	</g>
	<g>
		<path d="M174.2,33.9c-0.8,1.4-5.7,10.5-6.3,11.6c-2.5,4.6-4.7,7.4-4.9,13.4c-1.4,0-3.3-0.3-3.9-1.7c-0.2-0.5-0.1-0.8-0.4-1.7
			c-1.6,0.5-5,4.6-7.8,2.9c-1.2-0.7-1.5-1.9-1.3-3.8c0.3-3.4,3-6.3,5.6-8.5c2.6-2.2,5.1-3.1,8.1-2.3c0.9,0.3,1.2,1.4,1.6,0.6
			l6.1-10.5C171.4,33,174.2,33.9,174.2,33.9 M163.7,45.4c-3.3,0-9.3,4.9-8.9,9C161.1,50.6,163.2,47.7,163.7,45.4 M146.8,43.5
			c0.4,0.7-0.9,1.5-0.2,2.1c2.1-0.6,4.1-3.2,6.7-2c0.5,0.2,0.7,1.9,0.5,2.1c-1,0.9-2.2,2.1-3.5,2.9c-0.7,0.4-1.2-1.1-1.6-0.9
			c-5,1.7-6.1,6.8-8.5,10.4c-0.8,1.2-2.7,0.7-3.8,0.6c-0.6-0.1,1.5-3.3,2.3-5c1.7-3.4,3.5-6.6,4-10.5
			C144.2,42.7,146.8,43.5,146.8,43.5 M140.5,43.1c-0.8,1.4-1.4,2.4-2,3.6c-2.5,4.6-4.4,6.2-4.6,12.3c-1.4,0-3.3-0.3-3.9-1.7
			c-0.2-0.5-0.1-0.8-0.4-1.7c-1.6,0.5-5,4.6-7.8,2.9c-1.2-0.7-1.5-1.9-1.3-3.8c0.3-3.4,3-6.3,5.6-8.5c2.6-2.2,5.1-3.1,8.1-2.3
			c0.9,0.3,1.2,1.3,1.8,0.7l1.5-1.9C137.4,42.6,140.6,42.8,140.5,43.1 M134.6,45.4c-3.3,0-9.3,4.9-8.9,9
			C132.1,50.6,134.2,47.7,134.6,45.4 M95.4,44.9c0.6,0.8-1.1,3.6-2.4,4.9c-1.4,1.4-3.1,1.9-4.8,2.3c-1.3,0-2-1.3-3.1-1.5
			c-1,1-2,3.1-1.4,4.6c0.7,1.7,5-0.9,7.4-1.3c0.7,2.1-1.3,3-2.5,3.8c-2.2,1.1-4.7,2.1-7.2,1c-0.8-0.4-1.6-1.4-1.9-2.1
			c-1.2-3.4,2.4-9.4,6.4-11.9C88.4,43,92.8,41.6,95.4,44.9 M86.2,49.4c0.5,0.2,1.2,0,1.4-0.1c1.5-0.6,3.8-2,3.7-3.9
			C89.2,45.6,86.8,47.3,86.2,49.4 M79.7,32.8c0.4-0.5-6.1,10.3-5.9,10.8c1.3-0.3,3.3-1.4,4.7-0.9c0.9,0.3,1.7,1,1.9,1.9
			c0.4,5.8-4.5,10.3-9,13.3c-2.2,1.5-5.9,1.6-6.6-1.2c-0.8-3.5,0.6-6.6,1.9-9.5c2.5-5.8,4.9-9.7,8.3-14.1
			C76.3,31.6,79.8,32.4,79.7,32.8 M72.2,47.2c-2,2.1-2.4,5-2.9,7.6c3-1.2,5.2-4.6,5.7-7.7c-0.5,0-1.1,0.2-1.5,0.6
			C73.1,48,72.5,47.7,72.2,47.2 M101.9,43.5c0.4,0.7-0.4,1.5,0.2,2.2c2.1-0.6,3.8-3,6.5-1.9c0.5,0.2,0.8,1.8,0.5,2
			c-1,0.9-2,2.1-3.3,2.8c-0.7,0.4-1-1.1-1.4-0.9c-5,1.7-6.5,6.8-8.9,10.4c-0.8,1.2-2.5,0.6-3.6,0.6c-0.4,0,1.6-3.2,2.4-4.9
			c1.6-3.4,3.5-6.8,4-10.7C99.7,42.5,101.9,43.5,101.9,43.5 M119.6,33.2c-1.5,4.2-3.9,8-5.2,12.1c-0.1,0.5,3.7-3.5,6-2.7
			c1.4,0.5,2.1,2.1,1.9,2.9c-1.3,4.2-3.6,8.7-5.3,12.7c-0.3,0.6-4.8,0.4-4.8,0.4c1.9-3.5,4.2-7.6,4.9-11.4c0.1-0.6-2.6,1.4-3.9,2.9
			c-2.3,2.6-4,5.6-5.8,8.4c-0.4,0.6-3.9,0-3.9,0l12-25C116.7,32.1,119.6,33.2,119.6,33.2 M72.6,31.7c-0.1,1.8-1.8,2.9-2.9,4.4
			C66.6,37,59,35.4,58.1,36.2c-1.9,1.8-4,6.8-3.8,6.8c-0.2,0.4,8.2,0.1,11.9-0.2c1.1-0.1-0.3,1.5-0.8,2.5C65,46,64,46.9,63,47.1
			c-3.3,0.3-10.4-0.1-10.5,0.2c-1.2,2-2.3,6.6-2.3,6.6c-0.2,0.6,7.9,1.4,12.2,0.5c0.7-0.2-1.7,4.5-4.6,4.7
			c-3.9,0.3-8.8-0.1-12.1-1.5C43,56.3,53.8,32,56.7,32C57.9,32,72.6,31.7,72.6,31.7"/>
	</g>
</g>
</svg>
