<svg width="194" height="20" viewBox="0 0 194 20" fill="none" xmlns="http://www.w3.org/2000/svg">
<path fill-rule="evenodd" clip-rule="evenodd" d="M5.2208 4.05295C5.12402 4.05295 5.02724 4.14973 5.02724 4.24651V8.01709C5.02724 8.11387 5.12402 8.21065 5.2208 8.21065H7.15448C7.92808 8.21065 8.50812 8.01709 8.8946 7.72675C9.28172 7.34027 9.47464 6.85701 9.47464 6.08341C9.47464 5.40659 9.28172 4.82655 8.8946 4.53621C8.50812 4.14973 7.92808 4.05295 7.15448 4.05295H5.2208ZM5.2208 11.0141C5.12402 11.0141 5.02724 11.1108 5.02724 11.2076V15.7518C5.02724 15.8486 5.12402 15.9454 5.2208 15.9454H7.34804C8.21778 15.9454 8.79782 15.7518 9.18494 15.3653C9.57142 14.9782 9.76498 14.3982 9.76498 13.5284C9.76498 12.6581 9.57142 12.078 9.18494 11.6909C8.79782 11.3044 8.21778 11.1108 7.34804 11.1108H5.2208V11.0141ZM7.92808 19.1359H0.193359V16.4286C0.483057 16.3319 0.773399 16.1389 0.87018 15.9454C1.0631 15.655 1.15988 15.2686 1.15988 14.7853V5.11689C1.15988 4.63299 1.0631 4.24651 0.87018 3.95617C0.773399 3.76325 0.483057 3.56969 0.193359 3.47291V0.765625H7.34804C8.31456 0.765625 9.08816 0.862406 9.6682 0.959187C10.2482 1.05597 10.7315 1.24953 11.1186 1.53923C11.7954 1.92635 12.2787 2.50639 12.6652 3.18321C13.0523 3.86003 13.2452 4.72977 13.2452 5.69693C13.2452 7.24349 12.8587 9.17717 10.7315 9.75721C10.6354 9.75721 10.6354 9.85399 10.6354 9.95077C10.6354 10.0476 10.7315 10.1443 10.8283 10.1443C12.762 10.5308 13.7291 11.8845 13.7291 14.2046C13.7291 15.1718 13.6323 16.0422 13.342 16.719C13.0523 17.3952 12.6652 17.9758 12.0851 18.3623C11.6987 18.6527 11.2154 18.8456 10.6354 18.9424C9.95854 19.0391 9.08816 19.1359 7.92808 19.1359Z" fill="#1f1f1f"/>
<path fill-rule="evenodd" clip-rule="evenodd" d="M22.4301 12.8532C22.1404 12.9494 22.0436 13.0461 21.85 13.0461H21.7533C21.6565 13.0461 21.1732 13.3365 20.7867 13.53L20.3028 13.8197C19.4331 14.303 19.046 14.7869 19.046 15.4637C19.046 15.8502 19.1428 16.1406 19.4331 16.3335C19.6267 16.527 20.0131 16.7206 20.3996 16.7206C20.69 16.7206 21.0764 16.6238 21.4636 16.3335C21.85 16.0438 22.2365 15.7534 22.6236 15.3669L22.7204 15.2702V13.0461C22.7204 12.9494 22.7204 12.9494 22.6236 12.8532H22.4301ZM18.7563 19.2343C17.5962 19.2343 16.8226 18.944 16.1458 18.3639C15.5657 17.7839 15.2754 16.8167 15.2754 15.6566C15.2754 14.3998 15.7593 13.53 16.8226 12.7564C17.2091 12.4661 17.7891 12.1764 18.6595 11.7893C19.046 11.6925 21.9468 10.6292 22.4301 10.5324C22.5269 10.5324 22.5269 10.4356 22.5269 10.3395V10.0492C22.5269 9.17878 22.4301 8.69552 22.1404 8.30905C21.9468 7.92192 21.4636 7.72836 20.8835 7.72836C20.3996 7.72836 20.0131 7.92192 19.7228 8.21227C19.4331 8.50196 19.3363 8.88909 19.3363 9.37235V9.75882H15.8554V6.76184C16.7258 6.37537 17.5962 5.98824 18.4659 5.79533C19.4331 5.50498 20.3028 5.4082 21.1732 5.4082C22.6236 5.4082 23.7837 5.69855 24.6541 6.37537C25.1374 6.76184 25.4277 7.14832 25.6206 7.53545C25.8142 7.92192 25.911 8.40583 25.911 9.082V15.2702C25.911 15.7534 26.0077 16.0438 26.1039 16.2367C26.2007 16.4302 26.491 16.6238 26.7807 16.6238V19.0407H22.6236V17.9775C22.6236 17.8807 22.6236 17.7839 22.5269 17.7839H22.3333C21.5603 18.3639 20.9797 18.6543 20.3996 18.8472C20.1099 19.1375 19.5299 19.2343 18.7563 19.2343Z" fill="#1f1f1f"/>
<path fill-rule="evenodd" clip-rule="evenodd" d="M34.323 19.4259C33.8391 19.4259 33.4526 19.4259 33.0661 19.3292C32.679 19.3292 32.1957 19.233 31.8092 19.1362C31.3253 19.0395 30.9389 18.9427 30.3588 18.8459C29.8756 18.7491 29.3917 18.5562 28.8116 18.3626V14.8818H32.1957V14.9785C32.1957 15.6554 32.2925 16.1393 32.5822 16.429C32.8725 16.7193 33.259 16.9122 33.8397 16.9122C34.323 16.9122 34.6127 16.8154 34.903 16.5257C35.1927 16.2354 35.3863 15.8489 35.3863 15.4624C35.3863 15.2689 35.3863 14.9785 35.2895 14.8818C35.1927 14.6888 35.0966 14.4953 34.903 14.3985C34.7094 14.3017 34.5159 14.1088 34.1294 14.012C33.8397 13.9152 33.4526 13.7217 32.9693 13.6249C32.4861 13.5288 32.0989 13.3352 31.8092 13.2384C31.5189 13.1416 31.2292 12.9481 30.9389 12.9481L30.7453 12.8519C30.5524 12.7552 30.4556 12.7552 30.262 12.6584C30.1653 12.5616 29.9717 12.4648 29.8756 12.368H29.7788C29.102 11.788 28.7148 10.9183 28.7148 9.85432C28.7148 8.50068 29.102 7.53417 30.0685 6.76056C30.9389 5.98696 32.2925 5.69727 33.9358 5.69727C34.6127 5.69727 35.3863 5.79405 36.0631 5.98696C36.8367 6.18052 37.6103 6.47087 38.5768 6.76056L38.8672 6.85735V10.0479H35.6766C35.6766 8.50068 34.8062 8.21099 34.0326 8.21099C33.5494 8.21099 33.259 8.30777 32.9693 8.59746C32.679 8.88781 32.5822 9.27429 32.5822 9.66076C32.5822 10.2414 32.8725 10.6279 33.3558 10.9183C33.4526 11.0144 33.5494 11.0144 33.6461 11.1112C33.7429 11.208 34.4198 11.4015 34.7094 11.4983C34.9998 11.5951 35.2895 11.6912 35.6766 11.788C36.5463 12.0783 37.1264 12.2713 37.6103 12.4648C37.9968 12.6584 38.2871 12.8519 38.5768 13.0449C39.0601 13.6249 39.3504 14.3985 39.3504 15.4624C39.3504 18.073 37.7071 19.4259 34.323 19.4259Z" fill="#1f1f1f"/>
<path fill-rule="evenodd" clip-rule="evenodd" d="M46.2151 19.1359H40.9941V16.6222C41.0909 16.6222 41.2845 16.5254 41.2845 16.5254C41.478 16.4286 41.5748 16.3319 41.671 16.1389C41.7677 15.9454 41.7677 15.7518 41.7677 15.5583V14.7853V5.21303V4.44007C41.7677 4.24651 41.671 4.05295 41.671 3.86003C41.5748 3.66647 41.478 3.56969 41.3813 3.47291C41.2845 3.37613 41.1877 3.37613 40.9941 3.27935V0.765625H45.3454V14.7853V15.5583C45.3454 15.7518 45.4422 15.9454 45.4422 16.1389C45.5383 16.3319 45.6351 16.4286 45.8287 16.5254C45.9254 16.6222 46.0222 16.6222 46.2151 16.719V19.1359Z" fill="#1f1f1f"/>
<path fill-rule="evenodd" clip-rule="evenodd" d="M53.4662 7.92192C52.8862 7.92192 52.4029 8.11549 52.1126 8.50196C51.8229 8.88909 51.6293 9.46913 51.6293 10.1459V10.8228C51.6293 10.9195 51.7261 11.0157 51.8229 11.0157H55.1102C55.2063 11.0157 55.3031 10.9195 55.3031 10.8228V10.1459C55.3031 8.30905 54.2398 7.92192 53.4662 7.92192ZM53.4662 19.4272C52.4029 19.4272 51.4358 19.2343 50.6622 18.944C49.8892 18.6543 49.3092 18.1704 48.8253 17.6871C48.7285 17.4935 48.5356 17.3006 48.4388 17.1071C48.342 16.9135 48.2452 16.7206 48.2452 16.527C48.1484 16.3335 48.1484 16.0438 48.1484 15.7534V14.6901V10.0492C48.1484 9.27557 48.2452 8.69552 48.342 8.30905C48.4388 7.92192 48.6323 7.53545 48.922 7.14832C49.3092 6.56828 49.9853 6.1818 50.7589 5.89146C51.5325 5.60176 52.4997 5.4082 53.563 5.4082C54.6263 5.4082 55.4967 5.60176 56.2703 5.89146C57.0439 6.1818 57.7201 6.66506 58.204 7.14832C58.3007 7.34188 58.4937 7.43866 58.4937 7.63223C58.5904 7.82514 58.6872 8.0187 58.6872 8.21227C58.784 8.40583 58.784 8.69552 58.784 8.98587V10.1459V13.0461H51.7261C51.6293 13.0461 51.5325 13.1429 51.5325 13.2397V14.6901C51.5325 16.6238 52.4997 17.0103 53.3694 17.0103C54.2398 17.0103 55.2063 16.6238 55.2063 14.9798H58.6872V17.9775C57.14 18.944 55.3031 19.4272 53.4662 19.4272Z" fill="#1f1f1f"/>
<path fill-rule="evenodd" clip-rule="evenodd" d="M66.1325 19.1365H60.9121V16.6227C61.0082 16.6227 61.2018 16.526 61.2018 16.526C61.3954 16.4292 61.4922 16.3324 61.5883 16.1395C61.6851 16.0427 61.6851 15.7523 61.7818 15.5588V14.7858V10.0481C61.7818 9.37127 61.6851 8.88801 61.5883 8.69445C61.4922 8.50089 61.2986 8.30797 60.9121 8.21119V5.69747H65.0692V6.66399C65.0692 6.76077 65.166 6.85755 65.166 6.85755H65.2627C65.3595 6.85755 65.3595 6.85755 65.4563 6.76077L65.5524 6.66399C65.8428 6.27751 66.1325 5.98717 66.4228 5.79425C66.7132 5.60069 67.0028 5.50391 67.3893 5.50391H67.4861C67.6797 5.50391 67.8732 5.50391 67.97 5.60069V9.27449H67.7765H67.4861C66.5196 9.27449 65.2627 9.66096 65.2627 11.7882V14.7858V15.6556C65.2627 15.8491 65.3595 16.0427 65.3595 16.2356C65.4563 16.4292 65.5524 16.526 65.6492 16.6227C65.746 16.7195 65.8428 16.7195 66.0363 16.8156V19.1365H66.1325Z" fill="#1f1f1f"/>
<path fill-rule="evenodd" clip-rule="evenodd" d="M79.1848 2.89458C78.9919 2.89458 78.7983 2.99136 78.7015 3.08814C78.4112 3.18492 78.315 3.47462 78.315 3.86174C78.315 4.24822 78.4112 4.44178 78.6047 4.82826C78.7983 5.1186 79.088 5.79542 79.5719 6.47224C79.5719 6.56838 79.6687 6.56838 79.7648 6.56838H79.8616C80.732 6.08512 80.9255 5.50508 80.9255 5.1186C80.9255 4.53792 80.732 4.15144 80.4416 3.66818C80.0552 3.08814 79.6687 2.89458 79.1848 2.89458ZM79.4751 7.14842L79.3783 7.05228C78.7983 6.27868 78.508 5.50508 78.2183 5.1186C77.9279 4.6347 77.8311 4.24822 77.8311 3.86174C77.8311 3.37784 78.0247 2.89458 78.4112 2.70102C78.6047 2.60424 78.8951 2.5081 79.1848 2.5081C79.8616 2.5081 80.4416 2.89458 80.732 3.47462C81.1185 4.05466 81.2152 4.53792 81.312 5.1186V5.21474C81.312 5.98834 80.6352 6.66516 79.6687 7.14842H79.4751ZM76.8646 10.6293H76.7678C76.4775 10.8229 76.3814 10.9196 76.2846 11.1126C76.091 11.4029 75.8975 11.6926 75.8007 12.1765V12.3694C75.8007 13.143 76.091 13.8198 76.6711 14.5934C77.2511 15.367 77.8311 15.7535 78.508 15.8503H78.8951C79.3783 15.8503 79.7648 15.56 80.0552 15.367L80.1519 15.2703V15.0767C79.8616 14.6902 79.1848 13.8198 78.4112 12.6598C77.8311 11.6926 77.3479 11.0158 77.1543 10.5325C76.9614 10.6293 76.9614 10.6293 76.8646 10.6293ZM78.7983 16.3336H78.315C77.5414 16.2368 76.8646 15.7535 76.2846 14.8831C75.7045 14.0134 75.3174 13.2398 75.3174 12.3694V12.1765C75.3174 11.6926 75.511 11.2093 75.8975 10.8229C76.091 10.6293 76.2846 10.4357 76.8646 10.0493L77.0582 9.95248L77.1543 10.146C77.2511 10.3396 77.7344 11.2093 78.6047 12.563C79.4751 14.0134 80.3449 14.9799 80.5384 15.1735L80.6352 15.367L80.4416 15.4638L80.3449 15.56C80.1519 15.8503 79.5719 16.3336 78.7983 16.3336ZM81.8921 16.7207L81.9888 16.8168C81.9888 16.8168 82.1824 17.1072 82.5689 17.3969C82.7624 17.5904 83.2457 18.0743 83.6322 18.2672C84.2129 18.6544 84.9858 19.0408 85.7594 19.0408C86.8227 19.0408 87.6931 18.6544 88.4667 17.784C88.6603 17.4936 88.95 17.2039 89.1435 16.8168C89.2403 16.7207 89.1435 16.6239 89.1435 16.5271L89.0467 16.4303H88.95C88.6603 16.6239 88.2731 16.7207 87.8867 16.7207C87.2098 16.7207 86.6298 16.3336 86.1459 16.0439C85.6626 15.7535 84.9858 15.1735 84.4058 14.4967L84.309 14.3999L84.4058 14.3031C84.5993 14.1102 84.7929 13.8198 84.9858 13.5301C85.6626 12.6598 86.4362 11.4997 87.4995 10.7261C88.1764 10.2428 88.8532 10.2428 89.3371 10.2428C89.4332 10.2428 89.53 10.146 89.53 10.0493V8.98596C89.53 8.88918 89.4332 8.7924 89.3371 8.7924H89.1435C88.8532 8.7924 88.5635 8.7924 88.2731 8.88918C87.3066 9.0821 86.3395 9.566 85.5659 10.5325C85.2762 10.8229 85.0826 11.1126 84.889 11.3061C84.5026 11.6926 84.1161 12.0797 83.4393 12.9495L83.2457 13.143L83.1489 12.9495C83.1489 12.9495 82.2785 11.9829 81.5056 10.7261C81.1185 10.146 80.732 9.46922 80.2487 8.59884L80.1519 8.40592L80.3449 8.30914L80.6352 8.11558C81.312 7.72846 82.6657 7.05228 83.2457 6.47224C83.8257 5.89156 84.2129 5.1186 84.2129 4.24822C84.2129 3.5714 83.9225 2.5081 83.2457 1.92806C82.6657 1.44416 81.6985 0.767337 80.2487 0.767337C78.8951 0.767337 77.6382 1.25124 76.6711 2.12098C75.8975 2.7978 75.4142 3.95788 75.4142 5.1186C75.4142 5.69864 75.511 6.1819 75.7045 6.66516C75.8975 7.2452 76.091 7.72846 76.3814 8.21236L76.4775 8.40592L76.2846 8.50206C75.0277 9.17888 74.1573 9.8557 73.287 10.6293C72.0301 11.7894 71.4501 12.9495 71.4501 14.3999C71.4501 15.56 72.0301 16.9136 73.094 17.6872C74.0606 18.4608 75.1245 18.8473 76.2846 18.8473C77.3479 18.8473 78.4112 18.5576 79.5719 18.0743C80.0552 17.8808 81.6017 16.9136 81.8921 16.6239V16.7207ZM85.8562 19.4273C84.9858 19.4273 84.2129 19.0408 83.4393 18.6544C83.0521 18.4608 82.5689 17.9775 81.9888 17.3969C81.9888 17.3969 81.8921 17.3007 81.7953 17.3007H81.6985C81.312 17.5904 80.4416 18.1705 79.6687 18.5576C78.508 19.0408 77.3479 19.3305 76.1878 19.3305C74.9309 19.3305 73.7709 18.9441 72.7069 18.0743C71.6436 17.2039 70.9668 15.8503 70.9668 14.4967C70.9668 12.9495 71.6436 11.5965 72.9005 10.4357C73.867 9.566 74.6406 8.98596 75.6078 8.40592C75.7045 8.30914 75.7045 8.21236 75.7045 8.11558C75.511 7.72846 75.3174 7.34198 75.1245 6.85872C74.9309 6.27868 74.8342 5.69864 74.8342 5.1186C74.8342 3.76496 75.3174 2.60424 76.1878 1.83128C76.9614 1.15446 78.2183 0.380859 80.0552 0.380859C81.6017 0.380859 82.6657 1.05768 83.3425 1.63772C84.0193 2.21776 84.5026 3.28106 84.5026 4.24822C84.5026 5.21474 84.1161 6.08512 83.4393 6.76194C82.7624 7.43876 81.5056 8.0188 80.8288 8.40592C80.732 8.40592 80.732 8.50206 80.732 8.50206V8.69562C80.9255 9.0821 81.4088 9.8557 81.7953 10.4357C82.2785 11.2093 82.7624 11.8862 83.0521 12.2726C83.0521 12.3694 83.1489 12.3694 83.2457 12.3694C83.3425 12.3694 83.3425 12.3694 83.4393 12.2726C83.9225 11.6926 84.309 11.3061 84.5993 11.0158C84.7929 10.7261 85.0826 10.5325 85.2762 10.2428C86.1459 9.27566 87.1131 8.59884 88.2731 8.50206C88.5635 8.40592 88.8532 8.40592 89.1435 8.40592H89.8203H90.0133V10.6293H89.53C89.0467 10.6293 88.4667 10.7261 87.8867 11.1126C86.9195 11.7894 86.0498 12.9495 85.4691 13.8198C85.3729 14.0134 85.2762 14.1102 85.0826 14.3031C84.9858 14.3999 84.9858 14.4967 85.0826 14.5934C85.6626 15.1735 86.2427 15.6567 86.4362 15.7535C86.8227 16.0439 87.4995 16.4303 87.8867 16.4303C88.2731 16.4303 88.5635 16.3336 88.7564 16.1406C88.8532 16.0439 89.0467 15.8503 89.2403 15.56L89.3371 15.367L90.2068 15.8503L90.11 16.0439C89.7236 16.9136 89.3371 17.4936 88.8532 17.9775C87.9834 18.9441 86.9195 19.4273 85.8562 19.4273Z" fill="#1f1f1f"/>
<path fill-rule="evenodd" clip-rule="evenodd" d="M108.19 19.1359H102.389V16.4286C102.776 16.3319 102.969 16.1389 103.066 15.9454C103.259 15.655 103.356 15.2686 103.356 14.7853V11.3044C103.356 11.2076 103.259 11.1108 103.163 11.1108H99.1017C99.0055 11.1108 98.9087 11.2076 98.9087 11.3044V14.7853C98.9087 15.2686 99.0055 15.655 99.1984 15.9454C99.2952 16.1389 99.5856 16.3319 99.8753 16.4286V19.1359H94.0742V16.4286C94.4613 16.3319 94.6543 16.1389 94.751 15.9454C94.9446 15.655 95.0414 15.2686 95.0414 14.7853V5.11689C95.0414 4.53621 94.9446 4.24651 94.751 3.95617C94.6543 3.76325 94.3646 3.56969 94.0742 3.47291V0.765625H99.8753V3.47291C99.4888 3.56969 99.2952 3.76325 99.1017 3.95617C98.9087 4.24651 98.9087 4.53621 98.9087 5.11689V8.11387C98.9087 8.21065 99.0055 8.30743 99.1017 8.30743H103.163C103.259 8.30743 103.356 8.21065 103.356 8.11387V5.11689C103.356 4.63299 103.259 4.24651 103.066 3.95617C102.969 3.76325 102.679 3.56969 102.389 3.47291V0.765625H108.19V3.47291C107.804 3.56969 107.61 3.76325 107.417 3.95617C107.224 4.24651 107.224 4.53621 107.224 5.11689V14.7853C107.224 15.2686 107.32 15.655 107.417 15.9454C107.61 16.1389 107.804 16.3319 108.19 16.4286V19.1359Z" fill="#1f1f1f"/>
<path fill-rule="evenodd" clip-rule="evenodd" d="M115.635 7.92085C115.055 7.92085 114.571 8.11441 114.282 8.50089C113.991 8.88801 113.798 9.46805 113.798 10.1449V14.6891C113.895 16.526 114.862 16.9124 115.635 16.9124C116.505 16.9124 117.472 16.526 117.472 14.6891V10.1449C117.472 8.30797 116.505 7.92085 115.635 7.92085ZM115.635 19.4262C114.571 19.4262 113.702 19.2332 112.928 18.9429C112.154 18.6532 111.574 18.1693 111.091 17.686C110.801 17.2996 110.608 16.9124 110.414 16.526C110.317 16.1395 110.221 15.5588 110.221 14.7858V10.1449C110.221 9.37127 110.317 8.79123 110.414 8.40475C110.511 8.01763 110.704 7.63115 111.091 7.24403C111.574 6.66399 112.154 6.27751 112.928 5.98717C113.702 5.69747 114.668 5.50391 115.635 5.50391C116.699 5.50391 117.569 5.69747 118.343 5.98717C119.116 6.27751 119.792 6.66399 120.179 7.24403C120.469 7.63115 120.663 8.01763 120.856 8.40475C120.952 8.79123 121.049 9.37127 121.049 10.1449V14.7858C121.049 15.5588 120.952 16.1395 120.856 16.526C120.759 16.9124 120.566 17.2996 120.179 17.686C119.696 18.2661 119.116 18.6532 118.343 18.9429C117.569 19.2332 116.602 19.4262 115.635 19.4262Z" fill="#1f1f1f"/>
<path fill-rule="evenodd" clip-rule="evenodd" d="M128.203 19.1363H122.982V16.6226C123.079 16.6226 123.273 16.5258 123.273 16.5258C123.466 16.4291 123.562 16.3323 123.659 16.1394C123.756 15.9458 123.756 15.7522 123.853 15.5587V14.7857V8.40465C123.853 8.30786 123.756 8.21108 123.659 8.21108H122.982V5.79414H123.659C123.756 5.79414 123.853 5.69736 123.853 5.60058V5.02054V3.86046C123.853 3.57012 123.95 3.27978 123.95 2.99008C124.046 2.69974 124.046 2.50682 124.143 2.41004C124.239 2.21648 124.433 2.02292 124.53 1.83C125.11 1.0564 126.077 0.669922 127.334 0.669922C127.623 0.669922 127.817 0.669922 128.107 0.766058C128.3 0.766058 128.591 0.862838 128.977 0.862838V3.18364H128.783C128.203 3.18364 127.817 3.37656 127.527 3.6669C127.334 3.9566 127.14 4.53664 127.14 5.31024V5.5038C127.14 5.60058 127.237 5.69736 127.334 5.69736H128.687V8.1143H127.334C127.237 8.1143 127.14 8.21108 127.14 8.30786V14.7857V15.5587C127.14 15.7522 127.237 15.9458 127.237 16.1394C127.334 16.3323 127.43 16.4291 127.527 16.5258C127.623 16.6226 127.72 16.6226 127.914 16.7194V19.1363H128.203Z" fill="#1f1f1f"/>
<path fill-rule="evenodd" clip-rule="evenodd" d="M150.538 19.1375H146.38C146.38 19.0407 146.283 18.8472 146.283 18.7504C146.283 18.6543 146.186 18.4607 146.186 18.2671C146.186 18.0742 146.186 17.7839 146.089 17.5903V10.6292C146.089 10.2427 146.089 9.95239 145.993 9.66204C145.993 9.46913 145.897 9.17878 145.897 8.98587C145.606 8.30905 145.026 7.92192 144.156 7.92192C143.866 7.92192 143.576 7.92192 143.383 8.0187C143.189 8.11549 142.899 8.21227 142.512 8.40583C142.416 8.40583 142.416 8.50196 142.416 8.59874V15.2702C142.416 15.7534 142.512 16.0438 142.609 16.2367C142.706 16.4302 142.996 16.527 143.286 16.6238V19.0407H139.128C139.032 18.7504 138.935 18.4607 138.935 18.1704C138.935 17.8807 138.839 17.3968 138.839 16.8167V10.2427C138.839 9.46913 138.645 8.88909 138.259 8.50196C137.968 8.21227 137.485 8.0187 136.905 8.0187C136.615 8.0187 136.422 8.0187 136.228 8.11549C136.035 8.21227 135.744 8.30905 135.455 8.40583L135.261 8.50196C135.164 8.50196 135.164 8.59874 135.164 8.69552V15.3669C135.164 15.6566 135.261 15.8502 135.261 16.0438C135.358 16.2367 135.455 16.3335 135.551 16.4302C135.648 16.527 135.841 16.527 135.938 16.6238V19.0407H130.717V16.527C131.007 16.4302 131.201 16.2367 131.394 16.0438C131.49 15.8502 131.587 15.4637 131.587 15.0766V9.75882C131.587 9.27556 131.49 8.88909 131.394 8.69552C131.297 8.50196 131.007 8.30905 130.717 8.21227V5.69855H134.971V6.47215C134.971 6.56828 134.971 6.66506 135.068 6.66506H135.261C135.841 6.1818 136.325 5.89146 136.808 5.69855C137.291 5.50498 137.775 5.4082 138.355 5.4082C138.935 5.4082 139.419 5.50498 139.902 5.69855C140.385 5.89146 140.869 6.1818 141.449 6.66506L141.546 6.76184H141.642C142.223 6.37537 142.803 5.98824 143.48 5.79533C144.156 5.60176 144.736 5.4082 145.413 5.4082C146.089 5.4082 146.67 5.50498 147.153 5.79533C147.733 6.08502 148.217 6.37537 148.507 6.85863C148.7 7.14832 148.894 7.43866 148.99 7.72836C149.087 8.0187 149.087 8.50196 149.087 8.98587V15.1734C149.087 15.6566 149.184 15.947 149.281 16.1406C149.377 16.3335 149.667 16.4302 149.957 16.527V19.1375H150.538Z" fill="#1f1f1f"/>
<path fill-rule="evenodd" clip-rule="evenodd" d="M159.53 12.8532C159.239 12.9494 159.046 13.0461 158.95 13.1429C158.853 13.1429 158.369 13.4333 157.982 13.6262L157.402 13.9165C156.532 14.3998 156.146 14.883 156.146 15.5599C156.146 15.947 156.242 16.2367 156.532 16.4302C156.726 16.6238 157.112 16.7206 157.402 16.7206C157.692 16.7206 158.079 16.6238 158.466 16.3335C158.853 16.0438 159.239 15.7534 159.626 15.3669L159.723 15.2702V13.0461C159.723 12.9494 159.723 12.9494 159.626 12.8532H159.53ZM155.855 19.2343C154.695 19.2343 153.922 18.944 153.245 18.3639C152.665 17.7839 152.375 16.8167 152.375 15.6566C152.375 14.3998 152.858 13.53 153.922 12.7564C154.309 12.4661 154.889 12.1764 155.759 11.7893C156.146 11.6925 159.046 10.6292 159.53 10.5324C159.626 10.5324 159.626 10.4356 159.626 10.3395V10.0492C159.626 9.17878 159.53 8.69552 159.239 8.30905C159.046 7.92192 158.563 7.72836 157.982 7.72836C157.499 7.72836 157.112 7.92192 156.822 8.21227C156.532 8.50196 156.436 8.88909 156.436 9.37235V9.75882H152.955V6.76184C153.825 6.37537 154.695 5.98824 155.566 5.79533C156.532 5.50498 157.402 5.4082 158.273 5.4082C159.723 5.4082 160.883 5.69855 161.753 6.37537C162.237 6.76184 162.527 7.14832 162.72 7.53545C162.913 7.92192 163.01 8.40583 163.01 9.082V15.2702C163.01 15.7534 163.107 16.0438 163.203 16.2367C163.3 16.4302 163.591 16.6238 163.88 16.6238V19.0407H159.723V17.9775C159.723 17.8807 159.723 17.7839 159.626 17.7839H159.433C158.659 18.3639 158.079 18.6543 157.499 18.8472C157.209 19.1375 156.629 19.2343 155.855 19.2343Z" fill="#1f1f1f"/>
<path fill-rule="evenodd" clip-rule="evenodd" d="M178.576 19.1362H174.418C174.418 18.9427 174.322 18.7491 174.322 18.653L174.128 18.073V10.5311V9.46785C174.128 9.1775 174.031 8.98459 173.935 8.79103C173.838 8.50068 173.548 8.30777 173.258 8.11421C172.968 7.92064 172.678 7.82386 172.291 7.82386C171.711 7.82386 171.034 8.11421 170.358 8.59746C170.261 8.59746 170.261 8.69425 170.261 8.79103V15.1721C170.261 15.6554 170.358 15.9457 170.454 16.2354C170.551 16.429 170.841 16.5257 171.131 16.7193V19.233H165.91V16.7193C166.297 16.6225 166.49 16.429 166.587 16.2354C166.684 16.0425 166.78 15.5586 166.78 14.8818V10.1447C166.78 9.46785 166.684 8.98459 166.587 8.79103C166.49 8.59746 166.297 8.40455 165.91 8.30777V5.79405H170.164V6.567C170.164 6.66378 170.261 6.66378 170.261 6.76056H170.358H170.551C171.228 6.37409 171.808 6.08374 172.291 5.89018C172.774 5.69727 173.258 5.69727 173.935 5.69727C175.191 5.69727 176.159 5.98696 176.739 6.66378C177.415 7.3406 177.705 8.21099 177.705 9.37107V15.3657C177.705 15.8489 177.802 16.2354 177.899 16.429C177.995 16.6225 178.286 16.7193 178.576 16.8154V19.1362Z" fill="#1f1f1f"/>
<path fill-rule="evenodd" clip-rule="evenodd" d="M193.175 19.1362H189.017C189.017 18.9427 188.92 18.7491 188.92 18.653L188.823 18.2659V10.5311V9.46785C188.823 9.1775 188.727 8.98459 188.631 8.79103C188.534 8.50068 188.243 8.30777 187.954 8.11421C187.663 7.92064 187.374 7.82386 186.987 7.82386C186.407 7.82386 185.73 8.11421 185.053 8.59746C184.956 8.59746 184.956 8.69425 184.956 8.79103V15.1721C184.956 15.6554 185.053 15.9457 185.15 16.2354C185.246 16.429 185.536 16.5257 185.826 16.7193V19.233H180.605V16.7193C180.992 16.6225 181.185 16.429 181.282 16.2354C181.379 16.0425 181.476 15.5586 181.476 14.8818V10.1447C181.476 9.46785 181.379 8.98459 181.282 8.79103C181.185 8.59746 180.992 8.40455 180.605 8.30777V5.79405H184.859V6.567C184.859 6.66378 184.956 6.66378 184.956 6.76056H185.053H185.246C185.923 6.37409 186.503 6.08374 186.987 5.89018C187.47 5.69727 187.954 5.69727 188.631 5.69727C189.887 5.69727 190.757 5.98696 191.434 6.66378C192.111 7.3406 192.401 8.21099 192.401 9.37107V15.3657C192.401 15.8489 192.498 16.2354 192.594 16.429C192.691 16.6225 192.981 16.7193 193.271 16.8154V19.1362H193.175Z" fill="#1f1f1f"/>
<path fill-rule="evenodd" clip-rule="evenodd" d="M5.221 15.7533H7.34824C8.1212 15.7533 8.70124 15.5598 8.99158 15.2701C9.28193 14.8829 9.47484 14.3029 9.47484 13.5299C9.47484 12.7563 9.28193 12.1763 8.99158 11.886C8.70124 11.4995 8.1212 11.3059 7.34824 11.3059H5.221V15.7533ZM5.221 8.11538H7.15468C7.92828 8.11538 8.41154 7.92182 8.70124 7.63212C8.99158 7.34178 9.18514 6.85852 9.18514 6.1817C9.18514 5.50488 8.99158 5.02162 8.70124 4.73128C8.41154 4.44158 7.8315 4.24802 7.15468 4.24802H5.221V8.11538ZM0 16.2366C0.386478 16.1404 0.58004 16.0437 0.773601 15.7533C0.870382 15.5598 0.967163 15.2701 0.967163 14.7868V5.1184C0.967163 4.6345 0.870382 4.24802 0.773601 4.15124C0.676821 3.95768 0.386478 3.76476 0 3.66798V0.574219H7.34824C8.31476 0.574219 9.08836 0.671 9.6684 0.767135C10.2484 0.863916 10.7317 1.05748 11.2156 1.34718C11.8924 1.7343 12.4725 2.31434 12.8589 3.08794C13.2454 3.86154 13.439 4.73128 13.439 5.69844C13.439 7.92182 12.5686 9.46902 10.8285 9.95228C12.8589 10.4355 13.8261 11.6924 13.8261 14.2061C13.8261 15.1733 13.6325 16.0437 13.3422 16.8166C13.0525 17.5902 12.5686 18.1703 12.0853 18.5574C11.6989 18.8471 11.1188 19.0406 10.5388 19.2342C9.95875 19.3303 9.08836 19.4271 7.92828 19.4271H0V16.2366Z" fill="#ED125F"/>
<path fill-rule="evenodd" clip-rule="evenodd" d="M22.4296 13.0463C22.2361 13.1431 22.0432 13.2399 21.8496 13.3367C21.7528 13.4335 20.5927 13.9167 20.3024 14.1103C19.5294 14.4968 19.1423 14.98 19.1423 15.5601C19.1423 15.8504 19.2391 16.1408 19.4327 16.3337C19.6262 16.5272 19.9159 16.624 20.2063 16.624C20.496 16.624 20.8831 16.5272 21.1728 16.3337C21.5599 16.044 21.9464 15.7536 22.3329 15.3672V13.0463H22.4296ZM15.855 6.66527C16.7254 6.18201 17.6925 5.89166 18.659 5.60197C19.6262 5.31162 20.5927 5.21484 21.3663 5.21484C22.8168 5.21484 24.0736 5.60197 24.9434 6.27879C25.4273 6.66527 25.8137 7.05239 26.0073 7.53565C26.2002 7.92213 26.297 8.50217 26.297 9.17899V15.3672C26.297 15.7536 26.3938 16.044 26.4906 16.2369C26.5873 16.4305 26.7803 16.5272 27.1674 16.624V19.4274H22.6232V18.0744C21.8496 18.6545 21.2696 18.9442 20.6895 19.2345C20.1095 19.4274 19.5294 19.5242 18.7558 19.5242C17.5958 19.5242 16.7254 19.2345 16.0485 18.5577C15.3717 17.8809 15.082 16.9137 15.082 15.7536C15.082 14.4 15.6621 13.5303 16.7254 12.7566C17.1118 12.4663 17.7887 12.1766 18.659 11.7895C19.0455 11.6927 21.9464 10.6294 22.4296 10.4358V10.1461C22.4296 9.37255 22.3329 8.79251 22.1399 8.50217C21.9464 8.21247 21.5599 8.01891 21.076 8.01891C20.6895 8.01891 20.3024 8.11569 20.0127 8.40603C19.7223 8.69573 19.6262 8.98607 19.6262 9.37255V9.95259H15.7589V6.66527H15.855Z" fill="#ED125F"/>
<path fill-rule="evenodd" clip-rule="evenodd" d="M39.2541 9.95131H35.677V9.75775C35.677 8.59767 35.1931 8.01763 34.2266 8.01763C33.8395 8.01763 33.5498 8.11441 33.2595 8.40475C32.9698 8.59767 32.873 8.98479 32.873 9.37127C32.873 9.85453 33.0665 10.2416 33.5498 10.5313C33.6466 10.6281 33.7434 10.6281 33.8395 10.7249C33.9363 10.8217 34.6131 11.0146 34.8067 11.1114C35.097 11.2082 35.3867 11.3049 35.7732 11.4017C36.6436 11.6914 37.2236 11.885 37.7069 12.0785C38.094 12.2715 38.4805 12.465 38.674 12.7554C39.2541 13.3354 39.4476 14.2051 39.4476 15.3659C39.4476 18.2661 37.7069 19.7165 34.3234 19.7165C33.9363 19.7165 33.453 19.7165 33.0665 19.6197C32.6794 19.6197 32.1962 19.5229 31.8097 19.4262C31.3258 19.3294 30.8425 19.2332 30.3593 19.1365C29.876 18.9429 29.296 18.8461 28.7153 18.5564V14.7858H32.5826V15.0755C32.5826 15.6556 32.6794 16.1395 32.873 16.4292C33.0665 16.7195 33.453 16.8156 33.9363 16.8156C34.3234 16.8156 34.6131 16.7195 34.9034 16.526C35.1931 16.2356 35.2899 15.9459 35.2899 15.5588C35.2899 15.3659 35.2899 15.1723 35.1931 15.0755C35.097 14.882 35.0002 14.7858 34.8067 14.5923C34.6131 14.4955 34.4202 14.3019 34.1298 14.2051C33.8395 14.109 33.453 13.9155 32.9698 13.8187C32.4865 13.7219 32.0994 13.529 31.8097 13.4322C31.5193 13.3354 31.2296 13.1418 30.9393 13.1418C30.649 13.0451 30.456 12.9483 30.2625 12.8522C30.0689 12.7554 29.9721 12.6586 29.7792 12.5618C29.0056 11.9818 28.6191 11.0146 28.6191 9.85453C28.6191 8.50089 29.1024 7.43759 29.9721 6.66399C30.9393 5.89038 32.2929 5.50391 33.9363 5.50391C34.7099 5.50391 35.3867 5.60069 36.1603 5.79425C36.9339 5.98717 37.7069 6.27751 38.674 6.56721L39.0605 6.76077V9.95131H39.2541Z" fill="#ED125F"/>
<path fill-rule="evenodd" clip-rule="evenodd" d="M40.7999 16.5269C40.9928 16.4301 41.0896 16.4301 41.2832 16.3334C41.3799 16.2366 41.4767 16.1404 41.5735 16.0437V15.5598V14.7868V5.21454V4.44158C41.5735 4.24802 41.4767 4.05446 41.4767 3.95768C41.3799 3.86154 41.3799 3.76476 41.1864 3.66798C41.0896 3.5712 40.8967 3.5712 40.7031 3.47442V0.574219H45.4409V14.7868V15.5598C45.4409 15.7533 45.537 15.9469 45.537 16.0437C45.6338 16.1404 45.7306 16.2366 45.8273 16.3334C45.9241 16.4301 46.1177 16.4301 46.3106 16.5269V19.3303H40.7031V16.5269H40.7999Z" fill="#ED125F"/>
<path fill-rule="evenodd" clip-rule="evenodd" d="M55.1098 10.7251V10.0483C55.1098 8.69465 54.5291 8.01783 53.4658 8.01783C52.9825 8.01783 52.4993 8.21139 52.2089 8.50109C51.9186 8.88821 51.8224 9.37147 51.8224 10.0483V10.7251H55.1098ZM51.7257 13.2388V14.6893C51.7257 16.1397 52.3057 16.8159 53.369 16.8159C54.4329 16.8159 55.013 16.1397 55.013 14.8822V14.786H58.9771V18.1695C57.2364 19.2334 55.3995 19.7167 53.4658 19.7167C52.4025 19.7167 51.4353 19.5231 50.5656 19.2334C49.6952 18.9431 49.1152 18.4598 48.6319 17.8798C48.4383 17.6862 48.3416 17.4927 48.2448 17.2998C48.148 17.1062 48.0512 16.9126 48.0512 16.7197C47.9551 16.4294 47.9551 16.2358 47.9551 15.9461V14.8822V10.2419C47.9551 9.46825 48.0512 8.88821 48.148 8.40495C48.2448 7.92105 48.4383 7.53457 48.8248 7.14745C49.3087 6.56741 49.8888 6.08415 50.7585 5.79445C51.5321 5.50411 52.4993 5.31055 53.6593 5.31055C54.7226 5.31055 55.6898 5.50411 56.4628 5.79445C57.3331 6.08415 58.01 6.56741 58.4932 7.14745C58.6868 7.34101 58.7836 7.53457 58.8803 7.63135C58.9771 7.82427 59.0733 8.01783 59.0733 8.21139C59.17 8.40495 59.17 8.69465 59.17 8.98499V10.1451V13.2388H51.7257Z" fill="#ED125F"/>
<path fill-rule="evenodd" clip-rule="evenodd" d="M60.7188 16.5262C60.9123 16.4294 61.0084 16.4294 61.202 16.3326C61.2988 16.2358 61.3956 16.1397 61.4923 16.0429C61.5885 15.9461 61.5885 15.7526 61.5885 15.559V14.786V10.0483C61.5885 9.37147 61.4923 8.98499 61.3956 8.79143C61.2988 8.59787 61.1052 8.40495 60.7188 8.30817V5.50411H65.2629V6.66419L65.3597 6.56741C65.6494 6.18093 65.9397 5.79445 66.3262 5.60089C66.6166 5.40733 67.0031 5.31055 67.4863 5.31055C67.7767 5.31055 67.9702 5.40733 68.2599 5.40733V9.46825H67.8734H67.5831C66.2295 9.46825 65.5526 10.2419 65.5526 11.7884V14.786V15.559C65.5526 15.7526 65.6494 15.9461 65.6494 16.0429C65.7462 16.1397 65.7462 16.2358 65.9397 16.3326C66.0365 16.4294 66.2294 16.4294 66.423 16.5262V19.3296H60.8155V16.5262H60.7188Z" fill="#ED125F"/>
<path fill-rule="evenodd" clip-rule="evenodd" d="M78.508 3.86087C78.508 4.24735 78.508 4.34413 78.7983 4.7306C78.9919 5.11773 79.2816 5.69777 79.7648 6.37459C80.4416 5.98746 80.732 5.40742 80.732 5.11773C80.732 4.63382 80.6352 4.34413 80.2487 3.76409C79.9584 3.28018 79.6687 3.08727 79.1848 3.08727C78.9919 3.08727 78.8951 3.08727 78.7983 3.18405C78.6047 3.28018 78.508 3.47374 78.508 3.86087ZM78.315 2.50723C78.6047 2.31366 78.8951 2.21688 79.1848 2.21688C79.9584 2.21688 80.5384 2.60336 80.9255 3.28018C81.312 3.86087 81.4088 4.44091 81.5056 5.02095V5.11773C81.5056 5.98746 80.8288 6.76107 79.7648 7.24433L79.4751 7.43789L79.2816 7.14754C78.7015 6.27781 78.315 5.60099 78.1215 5.11773C77.9279 4.63382 77.7344 4.24735 77.7344 3.86087C77.6382 3.28018 77.8311 2.79692 78.315 2.50723ZM78.7983 15.7526C79.1848 15.7526 79.4751 15.5591 79.8616 15.3662C79.4751 14.8823 78.7983 14.1093 78.1215 12.9486C77.5414 11.9821 77.0582 11.3052 76.8646 10.822C76.5743 11.0149 76.4775 11.1117 76.3814 11.2085C76.1878 11.402 75.9942 11.6917 75.9942 12.1756V12.3685C75.9942 13.0454 76.1878 13.6254 76.7678 14.4958C77.3479 15.2694 77.9279 15.6559 78.4112 15.6559C78.508 15.7526 78.7015 15.7526 78.7983 15.7526ZM78.7983 16.5262H78.315C77.4447 16.4295 76.7678 15.8494 76.091 14.979C75.4142 14.1093 75.1245 13.2389 75.1245 12.3685V12.1756C75.1245 11.4988 75.4142 11.0149 75.7045 10.7252C75.8975 10.4349 76.1878 10.2419 76.7678 9.85483L77.1543 9.66126L77.3479 10.0484C77.3479 10.0484 77.8311 10.9188 78.7983 12.4653C79.7648 14.0125 80.732 15.0758 80.732 15.0758L81.0217 15.3662L80.732 15.6559C80.3449 15.9462 79.6687 16.5262 78.7983 16.5262ZM82.1824 16.7198C82.1824 16.7198 82.3753 17.0095 82.7624 17.2999C83.0521 17.5895 83.5354 17.9767 83.729 18.1696C84.5026 18.6535 85.0826 18.8464 85.7594 18.8464C86.7266 18.8464 87.5963 18.4599 88.3699 17.5895C88.5635 17.2999 88.8532 17.0095 89.0467 16.7198C88.7564 16.9127 88.2731 17.1063 87.8867 17.1063C87.2099 17.1063 86.533 16.7198 86.0498 16.3327C85.5659 16.043 84.889 15.463 84.309 14.7861L84.1161 14.4958L84.309 14.2054C84.9858 13.3357 85.953 11.6917 87.4028 10.6284C88.0802 10.1452 88.8532 10.0484 89.3371 10.0484V8.98509H89.1435C88.95 8.98509 88.6603 8.98509 88.3699 9.08122C87.3066 9.27479 86.4362 9.85483 85.7594 10.6284C85.0826 11.402 84.6961 11.6917 83.6322 13.0454L83.3425 13.4325L83.0521 13.0454C83.0521 13.0454 82.1824 12.0788 81.4088 10.822C80.8288 9.85483 80.1519 8.69475 80.1519 8.69475L79.9584 8.30827L80.3449 8.11471C80.8288 7.82436 82.5689 7.05141 83.1489 6.37459C83.729 5.79455 84.0193 5.02095 84.0193 4.24735C84.0193 3.57052 83.729 2.60336 83.0521 2.1201C82.3753 1.54006 81.4088 1.0568 80.1519 1.0568C78.6047 1.0568 77.4447 1.63684 76.6711 2.31366C75.8975 2.99048 75.511 4.05378 75.511 5.11773C75.511 5.60099 75.6078 6.08425 75.8007 6.5675C75.9942 7.05141 76.1878 7.53467 76.4775 8.11471L76.6711 8.50119L76.2846 8.69475C75.0277 9.37157 74.2541 9.95161 73.3837 10.822C72.2237 11.8853 71.6436 13.0454 71.6436 14.4958C71.6436 15.6559 72.3204 16.9127 73.1908 17.5895C74.1573 18.3631 75.1245 18.6535 76.2846 18.6535C77.3479 18.6535 78.4112 18.3631 79.4751 17.8799C80.5384 17.396 81.6985 16.5262 81.6985 16.5262L81.9888 16.2359L82.1824 16.7198ZM85.8562 19.62C84.9858 19.62 84.1161 19.2335 83.3425 18.7496C82.7624 18.4599 82.1824 17.7831 81.8921 17.4928C81.5056 17.7831 80.6352 18.3631 79.8616 18.7496C78.7015 19.2335 77.5414 19.5232 76.3814 19.5232C75.0277 19.5232 73.867 19.04 72.8037 18.2664C71.7404 17.396 70.9668 15.9462 70.9668 14.4958C70.9668 12.8525 71.7404 11.402 72.9973 10.2419C73.7709 9.46835 74.6406 8.88831 75.7045 8.21149C75.511 7.72758 75.3174 7.34111 75.1245 6.95463C74.9309 6.37459 74.8342 5.79455 74.8342 5.21386C74.8342 3.957 75.3174 2.60336 76.2846 1.73362C77.1543 0.960024 78.508 0.283203 80.3449 0.283203C81.7953 0.283203 82.9554 0.863243 83.729 1.54006C84.5993 2.21688 84.889 3.37696 84.9858 4.24735C84.9858 5.21386 84.5993 6.18103 83.9225 6.95463C83.2457 7.63145 81.9888 8.30827 81.312 8.59797C81.5056 8.98509 81.9888 9.75805 82.3753 10.3387C82.8592 11.1117 83.3425 11.7885 83.6322 12.1756C84.5026 11.1117 84.889 10.822 85.4691 10.1452C86.2427 9.17801 87.3066 8.50119 88.5635 8.30827C88.95 8.21149 89.2403 8.21149 89.53 8.21149C89.9171 8.21149 90.2068 8.30827 90.2068 8.30827L90.4972 8.40505V10.9188H90.11H89.7236C89.2403 10.9188 88.7564 11.0149 88.1764 11.3052C87.0163 12.1756 86.1459 13.4325 85.3729 14.399C85.8562 14.8823 86.3395 15.2694 86.7266 15.5591C87.1131 15.8494 87.7899 16.1398 88.0802 16.1398C88.3699 16.1398 88.6603 16.043 88.8532 15.8494C88.95 15.7526 89.0467 15.5591 89.2403 15.3662L89.4332 14.979L90.594 15.6559L90.4004 15.9462C90.0133 16.8159 89.6268 17.396 89.1435 17.9767C88.0802 19.1368 87.0163 19.62 85.8562 19.62Z" fill="#ED125F"/>
<path fill-rule="evenodd" clip-rule="evenodd" d="M93.8809 16.2359C94.2673 16.1398 94.4609 16.043 94.6538 15.7526C94.8474 15.5591 94.8474 15.1726 94.8474 14.6893V5.02095C94.8474 4.53704 94.7506 4.15056 94.6538 3.957C94.557 3.76409 94.2673 3.57052 93.8809 3.47374V0.379984H100.165V3.47374C99.778 3.57052 99.4883 3.76409 99.3916 3.957C99.2948 4.15056 99.198 4.53704 99.198 4.92417V7.92115H103.259V4.92417C103.259 4.44091 103.162 4.05378 103.065 3.86087C102.969 3.66731 102.679 3.47374 102.292 3.37696V0.283203H108.577V3.37696C108.19 3.47374 107.9 3.66731 107.803 3.86087C107.706 4.05378 107.61 4.44091 107.61 4.82738V14.7861C107.61 15.2694 107.706 15.6559 107.803 15.8494C107.997 16.043 108.19 16.2359 108.577 16.3327V19.4264H102.292V16.3327C102.679 16.2359 102.872 16.1398 103.065 15.8494C103.259 15.6559 103.259 15.2694 103.259 14.7861V11.3052H99.198V14.7861C99.198 15.2694 99.2948 15.6559 99.3916 15.8494C99.4883 16.043 99.778 16.2359 100.165 16.3327V19.4264H93.8809V16.2359Z" fill="#ED125F"/>
<path fill-rule="evenodd" clip-rule="evenodd" d="M117.277 10.5326V10.1461C117.277 8.79251 116.697 8.11569 115.634 8.11569C115.15 8.11569 114.667 8.30925 114.377 8.59895C114.087 8.98607 113.99 9.46933 113.99 10.1461V14.6903C113.99 16.044 114.57 16.7208 115.634 16.7208C116.697 16.7208 117.277 16.044 117.277 14.6903V10.5326ZM121.145 14.7871C121.145 15.5601 121.048 16.1408 120.951 16.624C120.855 17.0105 120.661 17.4937 120.275 17.8809C119.791 18.4609 119.211 18.9442 118.341 19.2345C117.568 19.5242 116.6 19.7178 115.537 19.7178C114.474 19.7178 113.507 19.5242 112.733 19.2345C111.96 18.9442 111.283 18.4609 110.799 17.8809C110.51 17.4937 110.219 17.1073 110.123 16.624C110.026 16.2369 109.93 15.5601 109.93 14.7871V10.1461C109.93 9.37255 110.026 8.79251 110.123 8.30925C110.219 7.92213 110.51 7.43887 110.799 7.05239C111.283 6.47235 111.96 5.98845 112.733 5.69875C113.507 5.40841 114.474 5.21484 115.537 5.21484C116.6 5.21484 117.568 5.40841 118.341 5.69875C119.211 5.98845 119.791 6.47235 120.275 7.05239C120.565 7.43887 120.855 7.82535 120.951 8.30925C121.048 8.69573 121.145 9.37255 121.145 10.1461V14.7871Z" fill="#ED125F"/>
<path fill-rule="evenodd" clip-rule="evenodd" d="M129.363 3.37764C129.267 3.37764 129.073 3.28086 128.977 3.28086C128.493 3.28086 128.106 3.47442 127.913 3.76476C127.72 4.05446 127.623 4.53772 127.623 5.21454V5.4081H129.17V8.21216H127.623V14.7868V15.5598C127.623 15.7533 127.72 15.9469 127.72 16.0437C127.817 16.1404 127.817 16.2366 128.01 16.3334C128.106 16.4301 128.3 16.4301 128.493 16.5269V19.3303H122.789V16.5269C122.982 16.4301 123.079 16.4301 123.272 16.3334C123.369 16.2366 123.466 16.1404 123.562 16.0437C123.659 15.9469 123.659 15.7533 123.659 15.5598V14.7868V8.40572H122.789V5.60166H123.659V5.02162V3.86154C123.659 3.5712 123.756 3.28086 123.756 2.99116C123.852 2.70082 123.852 2.5079 124.046 2.31434C124.143 2.12078 124.336 1.92786 124.432 1.7343C125.109 0.960697 126.076 0.574219 127.43 0.574219C127.72 0.574219 128.01 0.574219 128.3 0.671C128.59 0.671 128.88 0.767135 129.363 0.863916V3.37764Z" fill="#ED125F"/>
<path fill-rule="evenodd" clip-rule="evenodd" d="M130.91 5.50519H135.551V6.47235C136.131 5.98845 136.711 5.69875 137.195 5.50519C137.679 5.31162 138.259 5.21484 138.839 5.21484C139.419 5.21484 139.999 5.31162 140.482 5.50519C140.966 5.69875 141.546 6.08523 142.029 6.56849C142.609 6.18201 143.286 5.79553 143.963 5.60197C144.64 5.31162 145.317 5.21484 145.993 5.21484C146.67 5.21484 147.25 5.31162 147.83 5.60197C148.41 5.89166 148.894 6.27879 149.281 6.76205C149.474 7.05239 149.667 7.34209 149.764 7.72856C149.861 8.01891 149.861 8.50217 149.861 8.98607V15.1736C149.861 15.5601 149.957 15.9472 150.054 16.044C150.15 16.2369 150.441 16.3337 150.73 16.4304V19.2345H146.283C146.186 19.041 146.186 18.8474 146.089 18.7506C146.089 18.5577 145.993 18.4609 145.993 18.2673C145.993 18.0744 145.993 17.7841 145.897 17.5905V10.6294C145.897 10.2429 145.897 9.95259 145.8 9.75903C145.8 9.46933 145.703 9.27577 145.703 9.17899C145.509 8.59895 144.929 8.30925 144.156 8.30925C143.866 8.30925 143.673 8.30925 143.383 8.40603C143.189 8.50217 142.899 8.59895 142.609 8.79251V15.2704C142.609 15.6568 142.706 16.044 142.803 16.1408C142.899 16.3337 143.189 16.4305 143.48 16.5272V19.3306H139.032C138.935 18.9442 138.839 18.6545 138.742 18.3641C138.742 18.0744 138.645 17.5905 138.645 17.0105V10.4358C138.645 9.08221 138.162 8.40603 137.002 8.40603C136.808 8.40603 136.518 8.40603 136.325 8.50217C136.131 8.59895 135.841 8.69573 135.551 8.79251L135.455 8.88929V15.5601C135.455 15.7536 135.551 15.9472 135.551 16.1408C135.648 16.2369 135.648 16.3337 135.841 16.4304C135.938 16.5272 136.131 16.5272 136.325 16.624V19.4274H130.717V16.624C131.007 16.5272 131.297 16.4305 131.394 16.2369C131.49 16.044 131.587 15.7536 131.587 15.3672V9.75903C131.587 9.27577 131.49 8.98607 131.394 8.79251C131.297 8.59895 131.007 8.40603 130.717 8.30925V5.50519H130.91Z" fill="#ED125F"/>
<path fill-rule="evenodd" clip-rule="evenodd" d="M159.529 13.0463C159.335 13.1431 159.142 13.2399 159.046 13.3367C158.949 13.4335 157.788 13.9167 157.499 14.1103C156.725 14.4968 156.338 14.98 156.338 15.5601C156.338 15.8504 156.435 16.1408 156.628 16.3337C156.822 16.5272 157.111 16.624 157.402 16.624C157.692 16.624 158.079 16.5272 158.368 16.3337C158.755 16.044 159.142 15.7536 159.529 15.3672V13.0463ZM152.858 6.66527C153.728 6.18201 154.694 5.89166 155.662 5.60197C156.628 5.31162 157.595 5.21484 158.368 5.21484C159.819 5.21484 161.076 5.60197 161.946 6.27879C162.429 6.66527 162.816 7.05239 163.009 7.53565C163.203 7.92213 163.3 8.50217 163.3 9.17899V15.3672C163.3 15.7536 163.396 16.044 163.493 16.2369C163.59 16.4305 163.783 16.5272 164.169 16.624V19.4274H159.626V18.0744C158.852 18.6545 158.272 18.9442 157.692 19.2345C157.111 19.4274 156.531 19.5242 155.758 19.5242C154.598 19.5242 153.728 19.2345 153.051 18.5577C152.374 17.8809 152.084 16.9137 152.084 15.7536C152.084 14.4 152.664 13.5303 153.728 12.7566C154.114 12.4663 154.791 12.1766 155.662 11.7895C156.048 11.6927 158.949 10.6294 159.432 10.4358V10.1461C159.432 9.37255 159.335 8.79251 159.142 8.50217C158.949 8.21247 158.562 8.01891 158.079 8.01891C157.692 8.01891 157.305 8.11569 157.015 8.40603C156.725 8.69573 156.628 8.98607 156.628 9.37255V9.95259H152.761V6.66527H152.858Z" fill="#ED125F"/>
<path fill-rule="evenodd" clip-rule="evenodd" d="M165.717 16.5262C166.103 16.4294 166.297 16.2358 166.394 16.0429C166.49 15.8493 166.587 15.3661 166.587 14.786V10.0483C166.587 9.37147 166.49 8.98499 166.394 8.79143C166.297 8.59787 166.103 8.40495 165.717 8.30817V5.50411H170.358V6.47127H170.455C171.131 6.08415 171.711 5.69767 172.291 5.60089C172.775 5.40733 173.355 5.31055 174.032 5.31055C175.288 5.31055 176.352 5.69767 177.029 6.37449C177.706 7.05131 178.092 8.01783 178.092 9.27469V15.2693C178.092 15.7526 178.189 16.0429 178.286 16.2358C178.383 16.4294 178.673 16.5262 179.059 16.6229V19.4264H174.515C174.419 19.1367 174.419 18.9431 174.322 18.7495C174.322 18.5566 174.225 18.3631 174.225 18.0734C174.225 17.783 174.225 17.5895 174.128 17.2998V10.5315V9.46825C174.128 9.27469 174.032 9.08113 173.935 8.88821C173.839 8.59787 173.645 8.40495 173.355 8.30817C173.065 8.11461 172.775 8.11461 172.485 8.11461C171.905 8.11461 171.324 8.40495 170.648 8.88821V15.1725C170.648 15.6558 170.648 15.9461 170.744 16.1397C170.841 16.3326 171.131 16.4294 171.421 16.5262V19.3296H165.814V16.5262H165.717Z" fill="#ED125F"/>
<path fill-rule="evenodd" clip-rule="evenodd" d="M180.219 16.5262C180.605 16.4294 180.799 16.2358 180.896 16.0429C180.992 15.8493 181.088 15.3661 181.088 14.786V10.0483C181.088 9.37147 180.992 8.98499 180.896 8.79143C180.799 8.59787 180.605 8.40495 180.219 8.30817V5.50411H184.859V6.47127H184.956C185.633 6.08415 186.213 5.69767 186.793 5.60089C187.277 5.40733 187.857 5.31055 188.534 5.31055C189.79 5.31055 190.854 5.69767 191.53 6.37449C192.207 7.05131 192.594 8.01783 192.594 9.27469V15.2693C192.594 15.7526 192.691 16.0429 192.787 16.2358C192.884 16.4294 193.174 16.5262 193.561 16.6229V19.4264H189.017C188.92 19.1367 188.92 18.9431 188.823 18.7495C188.823 18.5566 188.727 18.3631 188.727 18.0734C188.727 17.783 188.727 17.5895 188.63 17.2998V10.5315V9.46825C188.63 9.27469 188.534 9.08113 188.437 8.88821C188.34 8.59787 188.146 8.40495 187.857 8.30817C187.566 8.11461 187.277 8.11461 186.986 8.11461C186.406 8.11461 185.826 8.40495 185.149 8.88821V15.1725C185.149 15.6558 185.149 15.9461 185.246 16.1397C185.343 16.3326 185.633 16.4294 185.923 16.5262V19.3296H180.315V16.5262H180.219Z" fill="#ED125F"/>
</svg>
