<?xml version="1.0" encoding="utf-8"?>
<!-- Generator: Adobe Illustrator 19.2.1, SVG Export Plug-In . SVG Version: 6.00 Build 0)  -->
<svg version="1.1" id="layer" xmlns="http://www.w3.org/2000/svg" xmlns:xlink="http://www.w3.org/1999/xlink" x="0px" y="0px"
	 viewBox="0 0 652 652" style="enable-background:new 0 0 652 652;" xml:space="preserve">
<style type="text/css">
	.st0{fill:#FFFFFF;}
	.st1{fill:#E22F5F;}
</style>
<g>
	<path class="st0" d="M37.3,302.4c-0.3,0-0.6,0.3-0.6,0.6v11.8c0,0.3,0.3,0.6,0.6,0.6h5.8c2.5,0,4.3-0.5,5.4-1.6
		c1.2-1.1,1.8-2.8,1.8-5c0-2.2-0.6-3.9-1.8-4.9c-1.2-1.1-3-1.6-5.4-1.6H42C42,302.4,37.3,302.4,37.3,302.4z M37.3,324.1
		c-0.3,0-0.6,0.3-0.6,0.6v13.8c0,0.3,0.3,0.6,0.6,0.6h6.4c2.6-0.1,4.5-0.7,5.7-1.8c1.2-1.2,1.7-3.1,1.7-5.7c0-2.6-0.6-4.5-1.7-5.7
		c-1.1-1.2-3.1-1.8-5.7-1.8h-1.8C41.9,324.1,37.3,324.1,37.3,324.1z M45.7,349.1h-1.1h-23v-8.4c1-0.3,1.8-0.8,2.2-1.5
		c0.5-0.8,0.8-2,0.8-3.6v-1.1v-27.5v-1.1c0-1.6-0.3-2.8-0.8-3.5c-0.4-0.6-1.1-1.1-2.2-1.5v-8.4H44c3.1,0,5.4,0.2,7.1,0.5
		c1.7,0.3,3.2,0.9,4.6,1.7c2.1,1.2,3.7,2.9,4.8,5.1c1.1,2.2,1.7,4.8,1.7,7.7c0,4.7-1.3,10.8-7.8,12.6c-0.3,0.1-0.5,0.3-0.5,0.6
		c0,0.3,0.2,0.5,0.5,0.6c6.1,1.3,8.9,5.3,8.9,12.5c0,3-0.4,5.7-1.3,7.9c-0.9,2.2-2.1,3.9-3.8,5c-1.3,0.9-2.8,1.6-4.5,1.9
		C51.7,349,49.1,349.1,45.7,349.1"/>
	<path class="st0" d="M90.6,329.6c-0.1,0-0.2,0-0.3,0.1c-0.6,0.2-1,0.5-1.5,0.7l-0.2,0.1c-0.2,0.1-1.7,0.8-3,1.5l-1.7,0.9
		c-2.6,1.4-3.9,3.1-3.9,5.1c0,1.1,0.4,2.1,1.1,2.8c0.7,0.7,1.7,1.1,2.9,1.1c1,0,2.2-0.4,3.4-1.1c1.3-0.8,2.5-1.8,3.6-3
		c0.1-0.1,0.2-0.3,0.2-0.4v-7c0-0.2-0.1-0.4-0.3-0.5C90.8,329.7,90.7,329.6,90.6,329.6 M79.2,349.5c-3.5,0-6.1-0.9-8-2.8
		c-1.9-1.9-2.8-4.8-2.8-8.3c0-3.9,1.4-6.5,4.8-8.9c1.1-0.8,3.1-1.8,5.8-2.9c1.1-0.4,10.2-3.5,11.8-4c0.3-0.1,0.4-0.3,0.4-0.6v-0.8
		c0-2.6-0.3-4.3-1.1-5.4c-0.7-1.2-2-1.8-3.8-1.8c-1.5,0-2.7,0.5-3.6,1.4c-0.9,0.9-1.3,2.1-1.3,3.6v1.3H70.7V311
		c2.6-1.3,5.4-2.3,8.2-3.1c3-0.8,5.8-1.2,8.3-1.2c4.4,0,8,1,10.8,3.1c1.4,1.1,2.5,2.3,3.1,3.6c0.6,1.2,1,2.8,1,4.7v19.1
		c0,1.4,0.2,2.4,0.6,3.1c0.4,0.7,1.2,1.1,2,1.3v7.6H91.8v-3.4c0-0.2-0.1-0.5-0.4-0.6c-0.1,0-0.2-0.1-0.3-0.1c-0.1,0-0.3,0-0.4,0.1
		c-2.3,1.8-4.3,2.7-5.9,3.4C83.3,349.2,81.5,349.5,79.2,349.5"/>
	<path class="st0" d="M127.6,350c-1.4,0-2.7-0.1-3.8-0.2c-1.2-0.1-2.6-0.3-3.9-0.6c-1.4-0.2-2.8-0.5-4.4-0.9c-1.4-0.4-3-0.9-4.7-1.5
		v-10.7h10.6v0.2c0,2.1,0.4,3.5,1.2,4.5c0.8,1,2.1,1.4,3.9,1.4c1.4,0,2.5-0.4,3.4-1.2c0.9-0.9,1.4-2,1.4-3.3c0-0.7-0.1-1.4-0.4-1.9
		c-0.2-0.6-0.6-1.1-1.3-1.6c-0.5-0.4-1.2-0.8-2.3-1.2c-0.9-0.4-2.1-0.9-3.6-1.3c-1.4-0.4-2.6-0.8-3.6-1.1c-1-0.4-1.9-0.8-2.7-1
		l-0.5-0.2c-0.5-0.2-1-0.4-1.4-0.7c-0.4-0.3-0.8-0.6-1.2-0.9l-0.2-0.1c-2.2-1.8-3.2-4.4-3.2-7.9c0-4.1,1.3-7.2,4.1-9.5
		c2.8-2.3,6.8-3.4,11.9-3.4c2.2,0,4.5,0.3,6.7,0.8c2.3,0.5,4.9,1.4,7.7,2.5l0.9,0.4v9.9h-9.9c0-4.8-2.8-5.8-5.1-5.8
		c-1.4,0-2.5,0.4-3.4,1.3c-0.9,0.9-1.3,2-1.3,3.3c0,1.7,0.8,3.1,2.3,4c0.4,0.2,0.7,0.4,1,0.5c0.4,0.2,2.5,1,3.2,1.2
		c0.8,0.2,1.8,0.5,3,0.9c2.7,0.8,4.6,1.5,5.9,2.1c1.2,0.5,2.2,1.2,2.9,1.9c1.5,1.7,2.3,4.2,2.3,7.5C142.9,345.8,137.9,350,127.6,350
		"/>
	<path class="st0" d="M164.4,349.1h-16.2v-7.7c0.4-0.1,0.8-0.3,1-0.4c0.5-0.3,0.9-0.7,1.1-1.2c0.2-0.5,0.3-1.1,0.4-1.8
		c0.1-0.6,0.1-1.5,0.1-2.5v-0.9V307v-1c0-1,0-1.7-0.1-2.3c-0.1-0.7-0.2-1.3-0.4-1.7c-0.2-0.5-0.6-0.9-1-1.2
		c-0.3-0.2-0.7-0.4-1.1-0.5v-7.8h13.5v43.1c0,0.9,0,1.8,0.1,2.5c0.1,0.7,0.2,1.3,0.4,1.7c0.3,0.5,0.7,0.9,1.1,1.1
		c0.3,0.2,0.7,0.3,1.1,0.5C164.4,341.5,164.4,349.1,164.4,349.1z"/>
	<path class="st0" d="M186.7,314.2c-1.8,0-3.2,0.6-4.3,1.9c-1,1.2-1.5,3-1.5,5.1v2c0,0.4,0.3,0.6,0.6,0.6h10.2
		c0.3,0,0.6-0.3,0.6-0.6v-0.8v-1.2C192.5,315.5,189.4,314.2,186.7,314.2 M186.8,350c-3.3,0-6.2-0.5-8.7-1.4c-2.4-0.9-4.3-2.3-5.7-4
		c-0.4-0.6-0.8-1.1-1.2-1.7c-0.2-0.5-0.5-1.1-0.6-1.7c-0.2-0.7-0.3-1.5-0.4-2.4c-0.1-0.9-0.1-2-0.1-3.2v-14.4c0-2.3,0.2-4.2,0.5-5.5
		c0.3-1.3,0.9-2.5,1.9-3.6c1.3-1.7,3.2-3,5.6-3.9c2.5-1,5.4-1.4,8.7-1.4c3.2,0,6.1,0.5,8.5,1.4c2.5,0.9,4.5,2.3,5.9,3.9
		c0.4,0.5,0.8,1,1,1.5c0.3,0.5,0.5,1.1,0.6,1.7c0.2,0.7,0.3,1.4,0.3,2.4c0.1,0.9,0.1,2.1,0.1,3.5v9h-21.8c-0.3,0-0.6,0.3-0.6,0.6
		v4.5c0,5.9,3.1,7.2,5.8,7.2c2.6,0,5.6-1.1,5.8-6.4h10.9v9.4C198.1,348.5,192.6,350,186.8,350"/>
	<path class="st0" d="M226.1,349.1h-16.2v-7.7c0.4-0.1,0.8-0.3,1-0.4c0.5-0.3,0.8-0.7,1.1-1.1c0.3-0.4,0.4-1.1,0.5-1.8
		c0.1-0.7,0.1-1.5,0.1-2.5v-0.9v-12.8V321c0-2.2-0.2-3.5-0.6-4.2c-0.3-0.7-1-1.2-2.1-1.6v-7.7h13v3c0,0.3,0.2,0.5,0.4,0.6
		c0.1,0,0.1,0,0.2,0c0.2,0,0.4-0.1,0.5-0.3l0.2-0.2c0.9-1.3,1.8-2.2,2.7-2.7c0.9-0.6,1.9-0.9,2.9-0.9l0.2,0c0.7,0,1.2,0.1,1.7,0.2
		v11.4c-0.2,0-0.4,0-0.5,0c-0.1-0.1-0.5-0.1-0.9-0.1c-3.1,0-6.8,1.3-6.8,7.7v9.3c0,1.1,0,1.9,0.1,2.6c0.1,0.6,0.2,1.2,0.4,1.7
		c0.2,0.5,0.6,0.9,1,1.1c0.3,0.2,0.7,0.3,1.1,0.5V349.1z"/>
	<path class="st0" d="M266.6,298.7c-0.6,0-1.1,0.1-1.6,0.5c0,0,0,0,0,0c-0.7,0.5-1.1,1.3-1.1,2.6c0,1.2,0.2,1.7,0.8,3.1
		c0.5,1,1.5,2.9,2.9,5.1c0.1,0.2,0.3,0.3,0.5,0.3c0.1,0,0.2,0,0.3-0.1c2.6-1.5,3.4-3.3,3.4-4.5c-0.1-1.8-0.5-2.9-1.5-4.6
		C269.3,299.5,268.2,298.8,266.6,298.7 M267.5,312.1l-0.3-0.5c-1.7-2.5-2.8-4.7-3.5-6.1c-0.8-1.5-1.1-2.6-1.1-3.8
		c0-1.6,0.6-3,1.7-3.7c0.7-0.4,1.4-0.7,2.3-0.7c2,0,3.8,1.1,4.9,3c1.1,1.8,1.6,3.3,1.7,5l0,0.3c0,2.3-2,4.6-5.1,6.1L267.5,312.1
		L267.5,312.1z M259.4,322.7c-0.1,0-0.3,0-0.4,0.1c-0.8,0.6-1.3,1-1.6,1.4c-0.6,0.8-1.2,1.7-1.4,3.4c0,0.2,0,0.4,0,0.6
		c0,2.3,0.8,4.4,2.6,6.9c1.8,2.4,3.7,3.7,5.7,4c0.2,0,1,0.1,1.2,0.1c1.4,0,2.7-0.8,3.6-1.4c0.1-0.1,0.2-0.3,0.2-0.4
		c0-0.2,0-0.3-0.1-0.5c-1-1.3-3.1-3.9-5.3-7.4c-1.9-3-3.2-5.2-3.9-6.5c-0.1-0.2-0.2-0.3-0.4-0.3
		C259.5,322.7,259.5,322.7,259.4,322.7 M265.5,340.6c-0.3,0-1.1,0-1.4-0.1c-2.3-0.3-4.5-1.8-6.4-4.5c-1.9-2.6-2.9-5.1-2.9-7.7
		c0-0.2,0-0.4,0-0.6c0.1-1.6,0.6-3,1.7-4.2c0.5-0.6,1.2-1.3,3.1-2.4l0.6-0.3l0.3,0.6c0.4,0.7,1.9,3.4,4.6,7.6c2.8,4.5,5.5,7.6,6,8.2
		l0.4,0.5l-0.5,0.4l-0.2,0.2C269.6,339.1,267.8,340.5,265.5,340.6 M275.1,341.6l0.4,0.4c0,0,0.8,0.8,1.8,1.8c0.6,0.6,2.1,2,3.3,2.7
		c1.9,1.1,4.2,2.3,6.7,2.3c3.3,0,6-1.3,8.5-4c0.7-0.8,1.5-1.8,2.1-2.9c0.2-0.3,0.1-0.6-0.1-0.8c-0.1-0.1-0.3-0.2-0.4-0.2
		c-0.1,0-0.3,0-0.4,0.1c-0.9,0.6-2,1-3.2,1c-2,0-4-1.3-5.4-2.2c-1.5-1-3.6-2.6-5.3-4.8l-0.3-0.4l0.3-0.4c0.5-0.7,1.1-1.4,1.7-2.3
		c2-2.8,4.5-6.2,7.8-8.6c2-1.4,4.2-1.6,5.7-1.6c0.3,0,0.6-0.3,0.6-0.6v-3.4c0-0.3-0.3-0.6-0.6-0.6c-0.2,0-0.5,0-0.8,0
		c-0.8,0-1.7,0.1-2.6,0.2c-3.1,0.5-6,2.2-8.5,5.1c-0.9,1-1.5,1.7-2.2,2.5c-1.1,1.2-2.3,2.5-4.4,5.1l-0.5,0.6l-0.5-0.6
		c-0.1-0.1-2.6-3-5.1-7c-1.1-1.8-2.4-4-3.9-6.5l-0.4-0.7l0.6-0.3l1-0.5c2.2-1.1,6.3-3.3,8-5c1.8-1.8,2.9-4.3,2.9-6.9
		c0-2.2-1-5.3-3.1-7.1c-1.8-1.6-4.9-3.5-9.3-3.5c-4.3,0-8.1,1.4-11.2,4.2c-2.3,2.1-3.8,5.6-3.8,9.3c0,1.7,0.3,3.3,0.9,4.9
		c0.7,1.8,1.3,3.3,2.1,4.9l0.3,0.6l-0.5,0.3c-4,2.2-6.6,4.2-9.2,6.6c-3.8,3.5-5.6,7.3-5.6,11.8c0,3.7,1.9,7.7,5,10.1
		c3,2.4,6.2,3.6,9.9,3.6c3.4,0,6.7-0.8,10.1-2.3c1.6-0.7,6.2-3.5,7.1-4.6l-0.1,0.2L275.1,341.6L275.1,341.6z M287.3,350.1
		L287.3,350.1c-2.8,0-5.2-1.2-7.4-2.5c-1.2-0.7-2.7-2-4.5-3.8c-0.1-0.1-0.3-0.2-0.5-0.2c-0.1,0-0.3,0-0.4,0.1
		c-1.3,1-3.8,2.7-6.3,3.9c-3.6,1.6-7.1,2.4-10.7,2.4c-3.9,0-7.5-1.3-10.7-3.8c-3.3-2.7-5.4-7-5.4-11.1c0-4.7,2-9,6-12.7
		c2.9-2.7,5.3-4.5,8.4-6.2c0.3-0.2,0.4-0.5,0.3-0.8c-0.6-1.2-1.1-2.4-1.7-4c-0.6-1.7-1-3.5-1-5.3c0-4.1,1.6-7.9,4.2-10.3
		c2.3-2,6.2-4.5,12-4.5c4.8,0,8.1,2,10.1,3.8c2.2,1.9,3.5,5,3.5,8.1c0,2.9-1.2,5.7-3.2,7.8c-2,2-5.9,4-8.1,5.1
		c-0.1,0.1-0.3,0.2-0.3,0.4c-0.1,0.2-0.1,0.4,0,0.5c0.7,1.3,2,3.5,3.3,5.5c1.5,2.4,3,4.4,4,5.6c0.1,0.1,0.3,0.2,0.5,0.2
		c0.2,0,0.4-0.1,0.5-0.2c1.6-1.8,2.6-2.9,3.5-4c0.7-0.8,1.4-1.5,2.2-2.5c2.7-3.1,5.8-5,9.2-5.5c0.9-0.2,1.9-0.2,2.8-0.2
		c1.2,0,2,0.1,2.1,0.1l0.5,0.1v7l-0.6,0l-0.4,0l-0.7,0c-1.5,0-3.4,0.2-5.1,1.4c-3.1,2.2-5.6,5.6-7.6,8.4c-0.4,0.5-0.7,1-1.1,1.5
		c-0.2,0.2-0.2,0.6,0,0.8c1.7,1.9,3.6,3.3,4.3,3.7c1.2,0.8,3.3,2,4.5,2c1.2,0,2.1-0.3,2.8-0.9c0.4-0.3,0.9-1,1.4-1.8l0.3-0.5
		l2.6,1.5l-0.2,0.5c-1.2,2.5-2.4,4.5-3.8,6.1C294,348.5,290.8,350.1,287.3,350.1"/>
	<path class="st0" d="M356.8,349.1h-18.1v-8.3c1.1-0.3,1.8-0.8,2.2-1.5c0.5-0.8,0.8-2,0.8-3.6v-1.1v-9.6c0-0.3-0.3-0.6-0.6-0.6
		h-12.6c-0.3,0-0.6,0.3-0.6,0.6v10.8c0.1,1.6,0.3,2.8,0.8,3.6c0.4,0.7,1.2,1.2,2.2,1.5v8.3h-18.1v-8.3c1.1-0.3,1.8-0.8,2.2-1.5
		c0.5-0.8,0.8-2,0.8-3.6v-1.1v-27.5v-1.1c0-1.7-0.3-2.9-0.8-3.6c-0.4-0.6-1.2-1.1-2.2-1.5v-8.3h18.1v8.4c-1.1,0.4-1.8,0.9-2.3,1.6
		c-0.5,0.8-0.7,1.9-0.7,3.5v9.1c0,0.4,0.3,0.6,0.6,0.6h12.6c0.3,0,0.6-0.3,0.6-0.6v-8v-1.1c-0.1-1.6-0.3-2.8-0.8-3.6
		c-0.4-0.7-1.2-1.2-2.2-1.5v-8.3h18.1v8.4c-1.1,0.4-1.8,0.9-2.3,1.6c-0.5,0.8-0.7,2-0.7,3.5v29.8c0,1.6,0.2,2.8,0.7,3.6
		c0.5,0.7,1.3,1.2,2.3,1.5V349.1L356.8,349.1z"/>
	<path class="st0" d="M379.7,314.2c-1.8,0-3.3,0.6-4.3,1.9c-1,1.3-1.4,2.9-1.4,5.1v14.3c0.2,5.8,3.2,7,5.7,7c2.6,0,5.7-1.2,5.7-7
		v-1.2v-11.8v-1.2C385.5,315.5,382.3,314.2,379.7,314.2 M379.7,350c-3.2,0-6-0.5-8.5-1.4c-2.4-1-4.3-2.3-5.7-4
		c-0.9-1.1-1.6-2.3-2-3.6c-0.3-1.2-0.5-3.1-0.5-5.5v-14.4c0-2.4,0.2-4.2,0.5-5.5c0.4-1.2,1-2.4,2-3.6c1.4-1.7,3.3-3,5.7-3.9
		c2.4-1,5.3-1.4,8.5-1.4c3.2,0,6,0.5,8.4,1.4c2.5,0.9,4.4,2.2,5.7,3.9c1,1.1,1.6,2.4,2,3.6c0.3,1.3,0.5,3.1,0.5,5.5v14.4
		c0,2.4-0.2,4.2-0.5,5.5c-0.3,1.3-1,2.5-2,3.6c-1.4,1.7-3.3,3-5.7,4C385.8,349.5,382.9,350,379.7,350"/>
	<path class="st0" d="M418.7,349.1h-16.2v-7.7c0.4-0.1,0.8-0.3,1-0.4c0.5-0.3,0.9-0.7,1.1-1.2c0.3-0.5,0.4-1.1,0.5-1.8
		c0.1-0.7,0.1-1.5,0.1-2.5v-1.3v-18.7c0-0.4-0.3-0.6-0.6-0.6h-2.1v-7.5h2.1c0.4,0,0.6-0.3,0.6-0.6v-1.8c0-1.4,0-2.6,0.1-3.6
		c0.1-1,0.3-1.9,0.4-2.6c0.2-0.8,0.4-1.4,0.7-1.9c0.3-0.6,0.8-1.2,1.2-1.8c1.9-2.3,4.9-3.5,8.8-3.5c0.8,0,1.6,0.1,2.5,0.2
		c0.7,0.1,1.6,0.2,2.7,0.4v7.4c-0.2,0-0.5,0-0.7,0c-1.8,0-3.1,0.6-3.9,1.6c-0.7,1-1.1,2.7-1.1,5v0.7c0,0.3,0.3,0.6,0.6,0.6h4.3v7.5
		h-4.3c-0.4,0-0.6,0.3-0.6,0.6v20c0,1,0,1.8,0.1,2.5c0,0.7,0.2,1.3,0.4,1.7c0.2,0.5,0.6,0.9,1,1.1c0.3,0.2,0.7,0.3,1.1,0.5V349.1z"
		/>
	<path class="st0" d="M488.1,349.1h-12.8c-0.1-0.4-0.3-0.8-0.4-1.1c-0.1-0.4-0.2-0.9-0.2-1.4c-0.1-0.7-0.1-1.4-0.2-2.2v-3v-1.7
		v-16.7c0-1.2-0.1-2.2-0.2-2.9c0-0.7-0.2-1.4-0.4-2c-0.9-2.2-2.6-3.2-5.3-3.2c-0.9,0-1.7,0.1-2.4,0.3c-0.7,0.2-1.5,0.6-2.6,1.3
		c-0.2,0.1-0.3,0.3-0.3,0.5v20c0,1.5,0.2,2.5,0.6,3.1c0.4,0.6,1.1,1,2.1,1.3v7.6h-12.8c-0.3-0.9-0.5-1.8-0.6-2.6
		c-0.1-1-0.2-2.5-0.2-4.2v-2v-17.2v-1.2c0-2.4-0.5-4.3-1.7-5.4c-1-1-2.4-1.5-4.1-1.5c-0.8,0-1.5,0.1-2.2,0.3c-0.6,0.2-1.4,0.5-2.4,1
		l-0.5,0.3c-0.2,0.1-0.3,0.3-0.3,0.5v20.7c0.1,0.8,0.2,1.5,0.4,2c0.2,0.5,0.6,0.9,1,1.3c0.4,0.2,0.8,0.3,1.2,0.5v7.6h-16.2v-7.7
		c1-0.4,1.6-0.8,2-1.5c0.4-0.7,0.6-1.7,0.7-3.1v-1.3v-0.9v-12.9V321v-1c0-1.6-0.2-2.7-0.6-3.4c-0.4-0.7-1.1-1.2-2.1-1.5v-7.7h13.1
		v2.4c0,0.2,0.1,0.5,0.3,0.6c0.1,0,0.2,0.1,0.3,0.1c0.1,0,0.3,0,0.4-0.1c1.8-1.4,3.4-2.3,4.9-2.9c1.4-0.5,3.1-0.8,4.8-0.8
		c1.8,0,3.4,0.3,4.9,1c1.6,0.6,3.1,1.6,4.7,3.1c0.1,0.1,0.3,0.2,0.4,0.2c0.1,0,0.3,0,0.4-0.1c1.8-1.3,3.7-2.3,5.7-3
		c2-0.7,4-1.1,5.9-1.1c2,0,3.8,0.4,5.5,1.2c1.8,0.8,3.2,1.8,4.3,3.3c0.7,0.9,1.2,1.8,1.4,2.8c0.3,1,0.4,2.3,0.4,3.8v19.3
		c0,1.5,0.2,2.5,0.6,3.1c0.4,0.6,1.1,1,2.1,1.3V349.1z"/>
	<path class="st0" d="M515.9,329.6c-0.1,0-0.2,0-0.3,0.1c-0.7,0.3-1.2,0.6-1.7,0.8c-0.2,0.1-1.7,0.9-3,1.5l-1.7,0.8
		c-2.6,1.4-3.9,3.1-3.9,5.1c0,1.2,0.4,2.1,1.1,2.8c0.7,0.7,1.7,1,2.8,1c1,0,2.2-0.4,3.4-1.1c1.3-0.8,2.5-1.8,3.6-3
		c0.1-0.1,0.2-0.3,0.2-0.4v-7c0-0.2-0.1-0.4-0.3-0.5C516.2,329.7,516.1,329.6,515.9,329.6 M504.5,349.5c-3.5,0-6.1-0.9-8-2.8
		c-1.9-1.9-2.8-4.8-2.8-8.3c0-3.9,1.4-6.5,4.8-8.9c1.1-0.8,3-1.8,5.8-2.9c1.1-0.4,10.2-3.5,11.8-4c0.3-0.1,0.4-0.3,0.4-0.6v-0.8
		c0-2.6-0.3-4.3-1.1-5.4c-0.7-1.2-2-1.8-3.8-1.8c-1.5,0-2.7,0.5-3.6,1.4c-0.9,0.9-1.3,2.1-1.3,3.6v1.3H496V311
		c2.6-1.3,5.4-2.3,8.2-3.1c3-0.8,5.8-1.2,8.3-1.2c4.4,0,8,1,10.8,3.1c1.4,1.1,2.5,2.3,3.1,3.6c0.6,1.2,1,2.8,1,4.7v19.1
		c0,1.4,0.2,2.4,0.6,3.1c0.4,0.7,1.2,1.1,2,1.3v7.6h-12.9v-3.4c0-0.2-0.1-0.5-0.4-0.6c-0.1,0-0.2-0.1-0.3-0.1
		c-0.1,0-0.3,0.1-0.4,0.1c-2.3,1.8-4.3,2.7-5.9,3.4C508.7,349.2,506.9,349.5,504.5,349.5"/>
	<path class="st0" d="M575.2,349.1h-12.8c-0.1-0.6-0.3-1.1-0.4-1.6l-0.2-1l-0.2-1l-0.1-1.2l-0.1-1.2l0-3.3v-1v-14.9v-1.1
		c0.1-1.6,0-2.7-0.1-3.3c-0.1-0.8-0.4-1.5-0.7-2c-0.4-0.9-1.2-1.6-2.2-2.1c-0.9-0.5-1.9-0.8-3-0.8c-1.9,0-3.9,0.8-6,2.4
		c-0.2,0.1-0.3,0.3-0.3,0.5v19.4c0,1.5,0.2,2.5,0.5,3.2c0.4,0.6,1.1,1,2.1,1.4v7.7h-16.2v-7.7c1.1-0.4,1.8-0.9,2.1-1.6
		c0.4-0.7,0.6-2.1,0.6-4.3v-0.9v-12.8V321c0-2.2-0.2-3.5-0.6-4.2c-0.3-0.7-1-1.2-2.1-1.6v-7.7h13.1v2.3c0,0.2,0.2,0.4,0.4,0.5
		c0.1,0,0.2,0.1,0.3,0.1c0.2,0,0.3-0.1,0.5-0.1c2.1-1.3,3.9-2.2,5.4-2.7c1.5-0.5,3.1-0.7,5.1-0.7c3.8,0,6.7,1,8.8,3
		c2.1,2,3.1,4.8,3.1,8.5v18.7c0,1.5,0.2,2.6,0.7,3.3c0.4,0.6,1.1,1,2.1,1.3C575.2,341.5,575.2,349.1,575.2,349.1z"/>
	<path class="st0" d="M620.3,349.1h-12.8c-0.1-0.6-0.3-1.1-0.4-1.6l-0.2-1.2l-0.1-0.8l-0.1-1.3l-0.1-1.1v-3.3v-1v-14.9v-1.1
		c0.1-1.6,0-2.7-0.1-3.3c-0.1-0.8-0.4-1.5-0.7-2c-0.4-0.9-1.2-1.6-2.2-2.1c-0.9-0.5-1.9-0.8-3-0.8c-1.9,0-3.9,0.8-6,2.4
		c-0.2,0.1-0.3,0.3-0.3,0.5v19.4c0,1.5,0.2,2.5,0.5,3.2c0.4,0.6,1.1,1,2.1,1.4v7.7h-16.2v-7.7c1.1-0.4,1.8-0.9,2.1-1.6
		c0.4-0.7,0.6-2.1,0.6-4.3v-0.9v-12.9V321c0-2.2-0.2-3.5-0.6-4.2c-0.3-0.7-1-1.2-2.1-1.6v-7.7h13.1v2.3c0,0.2,0.2,0.4,0.4,0.5
		c0.1,0,0.2,0.1,0.3,0.1c0.2,0,0.3,0,0.5-0.1c2.1-1.3,3.9-2.2,5.4-2.7c1.5-0.5,3.1-0.7,5.1-0.7c3.9,0,6.7,1,8.8,3
		c2.1,2,3.1,4.8,3.1,8.5v18.7c0,1.5,0.2,2.6,0.7,3.3c0.4,0.6,1.1,1,2.1,1.3L620.3,349.1L620.3,349.1z"/>
	<path class="st1" d="M37.3,338.6h6.4c2.4-0.1,4.2-0.6,5.2-1.6c1-1.1,1.6-2.9,1.6-5.3c0-2.4-0.5-4.2-1.6-5.2c-1-1.1-2.8-1.7-5.2-1.7
		h-1.8h-4.6C37.3,324.8,37.3,338.6,37.3,338.6z M37.3,314.9h5.8c2.3,0,4-0.5,4.9-1.4c1-1,1.6-2.5,1.6-4.5s-0.5-3.5-1.6-4.4
		c-1-1-2.7-1.5-4.9-1.5H42h-4.7C37.3,303.1,37.3,314.9,37.3,314.9z M21,340.3c1.1-0.3,1.9-0.7,2.3-1.4c0.5-0.7,0.7-1.8,0.7-3.2v-1.1
		v-27.5v-1.1c0-1.5-0.2-2.6-0.7-3.1c-0.4-0.6-1.2-1.1-2.3-1.4v-9.6h23c3.1,0,5.5,0.2,7.2,0.5c1.7,0.3,3.3,0.9,4.8,1.7
		c2.2,1.3,3.9,3.1,5,5.4c1.2,2.3,1.7,5,1.7,8c0,6.9-2.8,11.7-8.2,13.2c6.2,1.4,9.4,5.4,9.4,13.1c0,3.1-0.5,5.8-1.4,8.2
		c-0.9,2.3-2.2,4.1-4,5.3c-1.3,1-2.9,1.6-4.8,2c-1.8,0.3-4.5,0.5-8,0.5h-1.1H21C21,349.8,21,340.3,21,340.3z"/>
	<path class="st1" d="M90.6,330.3c-0.6,0.3-1.2,0.6-1.7,0.8c-0.4,0.2-3.9,1.9-4.7,2.3c-2.4,1.3-3.5,2.8-3.5,4.6c0,1,0.3,1.7,0.9,2.3
		c0.6,0.6,1.4,0.9,2.4,0.9c0.9,0,2-0.3,3.1-1c1.2-0.8,2.4-1.7,3.5-2.9C90.6,337.2,90.6,330.3,90.6,330.3z M70,310.6
		c2.8-1.4,5.7-2.5,8.7-3.3c3.1-0.8,5.9-1.2,8.5-1.2c4.5,0,8.3,1.1,11.1,3.2c1.5,1.1,2.6,2.4,3.3,3.8c0.7,1.3,1,3,1,5v19.1
		c0,1.3,0.2,2.2,0.5,2.8c0.3,0.6,1,0.9,2.1,1.2v8.7H91.1v-4.1c-2.3,1.8-4.3,2.7-6.1,3.5c-1.7,0.7-3.7,0.9-5.9,0.9
		c-3.6,0-6.4-0.9-8.5-3c-2-2.1-3-5.1-3-8.8c0-4.3,1.7-7,5.1-9.4c1.2-0.9,3.2-1.8,6-2.9c1.1-0.4,10.2-3.5,11.8-4.1v-0.8
		c0-2.4-0.3-4.1-1-5.1c-0.6-1-1.7-1.5-3.3-1.5c-1.3,0-2.4,0.4-3.2,1.2c-0.8,0.8-1.1,1.8-1.1,3.1v1.9H70C70,320.8,70,310.6,70,310.6z
		"/>
	<path class="st1" d="M142.7,320.8h-11.2v-0.5c0-3.5-1.5-5.3-4.4-5.3c-1.2,0-2.2,0.4-3,1.1c-0.8,0.7-1.1,1.7-1.1,2.9
		c0,1.5,0.7,2.7,2,3.5c0.3,0.2,0.7,0.3,1,0.5c0.3,0.2,2.3,0.9,3,1.1c0.8,0.2,1.8,0.6,3,1c2.7,0.8,4.6,1.5,5.9,2.1
		c1.3,0.6,2.3,1.3,3.1,2.1c1.7,1.8,2.5,4.5,2.5,8c0,8.9-5.3,13.4-16,13.4c-1.3,0-2.6,0-3.9-0.2c-1.3-0.1-2.6-0.3-4-0.6
		c-1.4-0.2-2.9-0.5-4.4-0.9c-1.6-0.5-3.3-1-5.2-1.7v-11.8H122v0.8c0,1.9,0.4,3.3,1,4.1c0.7,0.8,1.8,1.2,3.4,1.2c1.2,0,2.2-0.4,3-1
		c0.8-0.8,1.2-1.7,1.2-2.9c0-0.6-0.1-1.2-0.3-1.7c-0.2-0.5-0.5-1-1.1-1.4c-0.5-0.4-1.2-0.8-2.2-1.1c-0.9-0.4-2.1-0.8-3.6-1.3
		c-1.4-0.4-2.6-0.8-3.7-1.1c-1-0.4-1.9-0.8-2.7-1c-0.8-0.3-1.4-0.6-2-0.9c-0.5-0.3-1-0.7-1.5-1c-2.3-1.9-3.5-4.7-3.5-8.4
		c0-4.3,1.4-7.6,4.3-10c2.9-2.4,7.1-3.6,12.3-3.6c2.3,0,4.6,0.3,6.9,0.8c2.3,0.5,4.9,1.3,7.8,2.5l1.3,0.5L142.7,320.8L142.7,320.8z"
		/>
	<path class="st1" d="M147.6,341c0.6-0.2,1-0.3,1.4-0.5c0.3-0.2,0.6-0.5,0.8-0.9c0.2-0.4,0.3-0.9,0.3-1.6c0.1-0.6,0.1-1.4,0.1-2.4
		v-0.9V307v-1c0-1,0-1.7-0.1-2.3c-0.1-0.6-0.2-1.1-0.3-1.5c-0.2-0.4-0.4-0.7-0.8-0.9c-0.4-0.2-0.8-0.4-1.4-0.6v-8.9h14.8v43.8
		c0,1,0,1.8,0.1,2.4c0,0.6,0.2,1.2,0.3,1.6c0.2,0.3,0.5,0.6,0.9,0.9c0.3,0.2,0.8,0.3,1.4,0.5v8.8h-17.5
		C147.6,349.8,147.6,341,147.6,341z"/>
	<path class="st1" d="M191.9,323.2v-0.8v-1.2c0-4.2-1.7-6.3-5.1-6.3c-1.6,0-2.9,0.6-3.8,1.6c-0.9,1.1-1.3,2.7-1.3,4.7v2
		C181.6,323.2,191.9,323.2,191.9,323.2z M181.6,330.8v4.5c0,4.4,1.7,6.5,5.1,6.5c3.4,0,5.1-2,5.1-6.1v-0.3H204v10.4
		c-5.4,3.2-11.2,4.9-17.2,4.9c-3.4,0-6.4-0.5-8.9-1.4c-2.6-1-4.5-2.4-6-4.2c-0.5-0.6-0.9-1.2-1.2-1.8c-0.3-0.6-0.5-1.2-0.7-1.9
		c-0.2-0.8-0.3-1.6-0.4-2.5c-0.1-0.9-0.1-2-0.1-3.3v-14.4c0-2.4,0.2-4.3,0.5-5.7c0.3-1.4,1-2.7,2-3.8c1.4-1.8,3.3-3.2,5.9-4.1
		c2.5-1,5.5-1.5,8.9-1.5c3.3,0,6.2,0.5,8.8,1.5c2.6,1,4.6,2.4,6.2,4.1c0.5,0.5,0.8,1.1,1.1,1.6c0.3,0.5,0.5,1.1,0.7,1.8
		c0.2,0.7,0.3,1.5,0.4,2.5c0.1,0.9,0.1,2.1,0.1,3.5v9.6C204,330.8,181.6,330.8,181.6,330.8z"/>
	<path class="st1" d="M209.3,341c0.6-0.2,1-0.3,1.4-0.5c0.3-0.2,0.6-0.5,0.8-0.9c0.2-0.4,0.4-0.9,0.4-1.6c0.1-0.6,0.1-1.4,0.1-2.4
		v-0.9v-12.9V321c0-2-0.2-3.3-0.5-3.9c-0.3-0.6-1-1.1-2.2-1.5v-8.8h14.2v3.6l0.2-0.2c0.9-1.3,1.9-2.3,2.9-2.9c1-0.6,2.1-1,3.5-1
		c1,0,1.6,0.2,2.3,0.4v12.5c-0.5-0.1-0.8-0.1-1.1-0.1c-0.2-0.1-0.5-0.1-0.9-0.1c-4.1,0-6.2,2.4-6.2,7.1v9.3c0,1,0,1.9,0.1,2.5
		c0.1,0.6,0.2,1.1,0.3,1.5c0.2,0.3,0.4,0.6,0.8,0.9c0.3,0.2,0.8,0.3,1.4,0.5v8.8h-17.4L209.3,341L209.3,341z"/>
	<path class="st1" d="M264.5,301.8c0,1.1,0.1,1.5,0.8,2.8c0.6,1.2,1.5,3,2.9,5.1c2.2-1.3,3.1-2.9,3.1-3.9c0-0.1,0-0.1,0-0.1
		c-0.1-1.5-0.4-2.5-1.4-4.2c-1-1.5-1.9-2.1-3.3-2.1c-0.5,0-0.9,0.1-1.3,0.4C264.8,300.1,264.5,300.6,264.5,301.8 M263.9,297.6
		c0.8-0.5,1.7-0.8,2.6-0.8c2.3,0,4.2,1.3,5.4,3.3c1.1,1.9,1.6,3.5,1.8,5.3c0,0.1,0,0.2,0,0.3c0,2.6-2,5.1-5.5,6.7l-1,0.5l-0.6-0.9
		c-1.7-2.6-2.9-4.9-3.6-6.2c-0.7-1.4-1.1-2.6-1.1-4C261.9,300.1,262.6,298.5,263.9,297.6 M265.5,338.7c1.1,0,2.2-0.6,3.2-1.3
		c-1.1-1.4-3.2-4-5.3-7.5c-1.9-3-3.2-5.2-4-6.5c-0.8,0.6-1.2,1-1.5,1.3c-0.6,0.7-1.1,1.5-1.2,3.1c0,0.2,0,0.3,0,0.5
		c0,2.1,0.7,4,2.5,6.6c1.8,2.4,3.5,3.5,5.2,3.7C264.6,338.6,265.3,338.7,265.5,338.7 M265.5,341.2c-0.3,0-1.2-0.1-1.6-0.1
		c-2.6-0.4-4.9-2.1-6.9-4.7c-2-2.8-3-5.4-3-8c0-0.2,0-0.5,0-0.7c0.1-2.1,1-3.6,1.8-4.6c0.6-0.8,1.5-1.5,3.2-2.6l1.1-0.7l0.7,1.1
		c0,0,1.5,2.7,4.6,7.6c3.1,4.9,5.9,8.2,6,8.2l0.8,1l-1,0.8C270.2,339.4,268.3,341.2,265.5,341.2 M275.9,341.6c0,0,0.7,0.8,1.7,1.8
		c1,1,2.3,2.1,3.1,2.6c2.3,1.4,4.3,2.2,6.4,2.2c3.1,0,5.6-1.2,8-3.8c0.7-0.8,1.4-1.7,2-2.8c-1,0.7-2.3,1.1-3.6,1.1
		c-2.1,0-4.2-1.3-5.6-2.3c-1.5-1-3.7-2.7-5.4-4.9l-0.6-0.8l0.6-0.8c2.2-2.8,5.2-7.8,9.7-11c2.1-1.5,4.5-1.8,6-1.8v-3.4
		c-0.2,0-0.4,0-0.7,0c-0.7,0-1.5,0.1-2.5,0.2c-3.2,0.5-5.9,2.3-8.1,4.9c-2.2,2.5-3.2,3.4-6.7,7.6l-1,1.1l-1-1.1c0,0-2.6-3-5.1-7
		c-1.9-3.1-3.9-6.7-4-6.7l-0.6-1.1l1.1-0.6c1.4-0.8,6.9-3.4,8.8-5.4c1.8-1.8,2.7-4.1,2.7-6.5c0-2.3-1-5.1-2.9-6.6
		c-2-1.8-5-3.3-8.9-3.3c-4.8,0-8.3,1.8-10.8,4c-2.3,2-3.6,5.5-3.6,8.8c0,1.6,0.3,3.1,0.8,4.6c0.6,1.6,1.2,3.1,2.1,4.9l0.6,1.1
		l-1.1,0.6c-3.8,2.1-6.3,4-9,6.5c-3.6,3.3-5.4,6.9-5.4,11.3c0,3.6,2,7.4,4.7,9.6c2.9,2.3,6,3.4,9.5,3.4c3.3,0,6.6-0.8,9.9-2.3
		c3.3-1.5,6.8-4.3,6.8-4.3l0.9-0.8C275.1,340.8,275.9,341.6,275.9,341.6z M287.2,350.7c-2.8,0-5.3-1.1-7.7-2.6
		c-1.7-1-3.6-2.9-4.6-3.9c-1.3,1-3.9,2.8-6.4,4c-3.6,1.6-7.2,2.5-10.9,2.5c-4.1,0-7.8-1.4-11.1-4c-3.3-2.7-5.6-7.1-5.6-11.6
		c0-5.1,2.3-9.5,6.2-13.1c2.5-2.4,5-4.3,8.5-6.3c-0.7-1.4-1.2-2.7-1.7-4c-0.7-1.8-1-3.6-1-5.5c0-3.9,1.4-8,4.4-10.7
		c2.8-2.5,7-4.6,12.5-4.6c4.6,0,8.2,1.9,10.5,3.9c2.6,2.2,3.7,5.6,3.8,8.5c0,3-1.2,6-3.4,8.3c-2.1,2-6.1,4.1-8.2,5.2
		c0.7,1.3,2,3.5,3.2,5.5c1.5,2.4,3,4.4,4,5.6c2.8-3.3,3.9-4.3,5.7-6.4c2.5-2.9,5.7-5.1,9.6-5.7c1.1-0.2,2.1-0.3,2.9-0.3
		c1.3,0,2.1,0.2,2.2,0.2l1,0.2v8.1l-1.3,0c-0.3,0-0.7,0-1.1,0c-1.4,0-3.1,0.2-4.7,1.3c-3.6,2.6-6.3,6.7-8.6,9.7
		c1.4,1.6,3,2.8,4.2,3.6c1.2,0.9,3.3,1.9,4.2,1.9c1,0,1.7-0.3,2.4-0.8c0.3-0.3,0.7-0.8,1.2-1.6l0.6-1.1l3.6,2.2l-0.5,1
		c-1.2,2.6-2.5,4.6-4,6.3C294.4,349.1,291,350.7,287.2,350.7C287.3,350.7,287.2,350.7,287.2,350.7z"/>
	<path class="st1" d="M312.2,340.3c1.2-0.3,1.9-0.7,2.4-1.4c0.5-0.7,0.7-1.8,0.7-3.2v-1.1v-27.5v-1.1c0-1.5-0.2-2.6-0.7-3.2
		c-0.4-0.6-1.2-1.1-2.4-1.4v-9.5h19.4v9.5c-1.1,0.3-2,0.8-2.4,1.5c-0.4,0.6-0.6,1.7-0.6,3.1v9.1h12.6v-8v-1.1
		c-0.1-1.5-0.3-2.6-0.7-3.2c-0.4-0.6-1.2-1.1-2.3-1.4v-9.5h19.4v9.5c-1.2,0.3-2,0.8-2.4,1.5c-0.4,0.6-0.6,1.7-0.6,3.1v29.8
		c0,1.5,0.2,2.6,0.6,3.2c0.5,0.6,1.3,1.1,2.4,1.4v9.5h-19.4v-9.5c1.2-0.3,1.9-0.7,2.3-1.4c0.5-0.7,0.7-1.8,0.7-3.2v-1.1v-9.6h-12.6
		v10.8c0,1.5,0.3,2.6,0.7,3.2c0.4,0.6,1.2,1.1,2.3,1.4v9.5h-19.4L312.2,340.3L312.2,340.3z"/>
	<path class="st1" d="M384.8,322.4v-1.2c0-4.2-1.7-6.3-5.1-6.3c-1.6,0-2.9,0.6-3.8,1.6c-0.9,1.1-1.3,2.7-1.3,4.7v14.3
		c0.1,4.2,1.8,6.3,5.1,6.3c3.4,0,5.1-2.1,5.1-6.3v-1.2L384.8,322.4L384.8,322.4z M397,335.6c0,2.4-0.2,4.3-0.5,5.7
		c-0.3,1.3-1,2.6-2.1,3.8c-1.4,1.8-3.4,3.2-6,4.2c-2.5,0.9-5.4,1.4-8.7,1.4c-3.3,0-6.2-0.5-8.7-1.4c-2.5-1-4.5-2.4-6-4.2
		c-1-1.2-1.7-2.5-2.1-3.8c-0.3-1.3-0.5-3.2-0.5-5.7v-14.4c0-2.4,0.2-4.3,0.5-5.7c0.4-1.3,1.1-2.6,2.1-3.8c1.5-1.8,3.5-3.2,6-4.1
		c2.5-1,5.4-1.5,8.7-1.5c3.3,0,6.2,0.5,8.7,1.5c2.6,0.9,4.5,2.3,6,4.1c1,1.2,1.7,2.5,2.1,3.8c0.3,1.3,0.5,3.2,0.5,5.7V335.6z"/>
	<path class="st1" d="M422.4,300.4c-0.3-0.1-0.9-0.2-1.3-0.2c-1.6,0-2.7,0.5-3.4,1.4c-0.6,0.9-1,2.5-1,4.6v0.7h5v8.8h-5v20
		c0,1,0,1.8,0.1,2.4c0,0.6,0.2,1.2,0.3,1.6c0.2,0.3,0.4,0.6,0.8,0.9c0.3,0.2,0.8,0.4,1.4,0.5v8.8h-17.4V341c0.6-0.2,1-0.3,1.4-0.5
		c0.3-0.2,0.6-0.5,0.8-0.9c0.2-0.4,0.4-0.9,0.4-1.6c0.1-0.6,0.1-1.4,0.1-2.4v-1.3v-18.7h-2.7v-8.8h2.7v-1.8c0-1.4,0-2.7,0.1-3.6
		c0.1-1,0.3-1.9,0.4-2.7c0.2-0.8,0.4-1.5,0.8-2.1c0.3-0.6,0.8-1.3,1.3-1.9c2.1-2.5,5.2-3.7,9.3-3.7c0.9,0,1.8,0.1,2.6,0.2
		c0.9,0.1,1.9,0.3,3.3,0.5C422.4,291.7,422.4,300.4,422.4,300.4z"/>
	<path class="st1" d="M427.2,306.9h14.4v3.1c1.9-1.4,3.5-2.4,5-2.9c1.6-0.6,3.2-0.9,5-0.9c1.9,0,3.6,0.3,5.1,1
		c1.6,0.6,3.2,1.7,4.9,3.2c1.8-1.3,3.8-2.4,5.9-3.1c2.1-0.8,4.2-1.1,6.2-1.1c2,0,4,0.4,5.8,1.3c1.9,0.8,3.4,2,4.5,3.5
		c0.8,0.9,1.3,1.9,1.6,3c0.3,1,0.5,2.3,0.5,3.9v19.3c0,1.3,0.2,2.3,0.5,2.8c0.4,0.5,1.1,0.9,2.2,1.1v8.8h-13.9
		c-0.2-0.6-0.4-1.1-0.5-1.6c-0.1-0.5-0.2-1-0.3-1.6c-0.1-0.6-0.1-1.4-0.2-2.2v-3v-1.7v-16.7c0-1.2-0.1-2.1-0.2-2.8
		c-0.1-0.8-0.2-1.4-0.3-1.9c-0.7-1.9-2.3-2.8-4.7-2.8c-0.8,0-1.6,0.1-2.2,0.3c-0.6,0.2-1.5,0.6-2.4,1.2v20c0,1.3,0.2,2.3,0.5,2.8
		c0.4,0.5,1.1,0.9,2.2,1.1v8.8h-13.9c-0.3-1.1-0.6-2.1-0.8-3.1c-0.1-1-0.2-2.5-0.2-4.3v-2v-17.2v-1.2c0.1-4.2-1.6-6.3-5.1-6.3
		c-0.7,0-1.4,0.1-2,0.3c-0.6,0.2-1.4,0.5-2.3,0.9l-0.4,0.3v20.7c0.1,0.7,0.2,1.3,0.3,1.7c0.2,0.4,0.4,0.7,0.8,1
		c0.3,0.2,0.8,0.4,1.5,0.5v8.8h-17.5V341c1-0.3,1.7-0.7,2.1-1.3c0.3-0.6,0.5-1.5,0.6-2.8v-1.3v-0.9v-12.8V321v-1
		c0-1.5-0.2-2.5-0.5-3.1c-0.3-0.6-1.1-1.1-2.2-1.4C427.2,315.6,427.2,306.9,427.2,306.9z"/>
	<path class="st1" d="M515.9,330.3c-0.7,0.3-1.2,0.6-1.7,0.8c-0.4,0.2-3.9,1.9-4.7,2.3c-2.4,1.3-3.5,2.8-3.5,4.6
		c0,1,0.3,1.7,0.9,2.3c0.6,0.6,1.4,0.9,2.4,0.9c0.9,0,2-0.3,3.1-1c1.2-0.8,2.4-1.7,3.5-2.9C515.9,337.2,515.9,330.3,515.9,330.3z
		 M495.4,310.6c2.8-1.4,5.7-2.5,8.7-3.3c3.1-0.8,5.9-1.2,8.5-1.2c4.5,0,8.3,1.1,11.1,3.2c1.5,1.1,2.6,2.4,3.3,3.8c0.7,1.3,1,3,1,5
		v19.1c0,1.3,0.2,2.2,0.5,2.8c0.3,0.6,1,0.9,2.1,1.2v8.7h-14.2v-4.1c-2.3,1.8-4.3,2.7-6.1,3.5c-1.7,0.7-3.7,0.9-5.9,0.9
		c-3.6,0-6.4-0.9-8.5-3c-2-2.1-3-5.1-3-8.8c0-4.3,1.7-7,5.1-9.4c1.2-0.9,3.2-1.8,5.9-2.9c1.1-0.4,10.2-3.5,11.8-4.1v-0.8
		c0-2.4-0.3-4.1-1-5.1c-0.6-1-1.7-1.5-3.3-1.5c-1.3,0-2.4,0.4-3.2,1.2c-0.8,0.8-1.1,1.8-1.1,3.1v1.9h-12
		C495.4,320.8,495.4,310.6,495.4,310.6z"/>
	<path class="st1" d="M535,341c1.1-0.3,1.9-0.8,2.2-1.4c0.3-0.6,0.5-2,0.5-4v-0.9v-12.9V321c0-2-0.2-3.3-0.5-3.9
		c-0.3-0.6-1-1.1-2.2-1.5v-8.8h14.4v2.9l0.2-0.1c2.2-1.3,4-2.3,5.6-2.8c1.6-0.5,3.3-0.8,5.3-0.8c4,0,7.1,1.1,9.2,3.2
		c2.2,2.1,3.3,5.1,3.3,8.9v18.7c0,1.4,0.2,2.4,0.6,2.9c0.4,0.5,1.2,0.9,2.3,1.1v8.8h-14c-0.2-0.8-0.3-1.4-0.5-2.1
		c-0.1-0.6-0.2-1.3-0.3-2.1c0-0.8-0.1-1.6-0.2-2.4v-3.3v-1v-14.9v-1.1c0.1-1.5,0-2.6-0.1-3.2c-0.1-0.7-0.3-1.3-0.6-1.8
		c-0.4-0.8-1-1.4-1.9-1.8c-0.8-0.5-1.7-0.7-2.7-0.7c-1.7,0-3.6,0.8-5.6,2.3v19.4c0,1.4,0.1,2.3,0.4,2.9c0.3,0.5,1.1,0.9,2.2,1.2v8.8
		H535L535,341L535,341z"/>
	<path class="st1" d="M580.2,341c1.1-0.3,1.9-0.8,2.2-1.4c0.4-0.6,0.5-2,0.5-4v-0.9v-12.9V321c0-2-0.2-3.3-0.5-3.9
		c-0.3-0.6-1-1.1-2.2-1.5v-8.8h14.4v2.9l0.2-0.1c2.2-1.3,4-2.3,5.6-2.8c1.6-0.5,3.3-0.8,5.3-0.8c4,0,7.1,1.1,9.2,3.2
		c2.2,2.1,3.3,5.1,3.3,8.9v18.7c0,1.4,0.2,2.4,0.6,2.9c0.4,0.5,1.2,0.9,2.3,1.1v8.8h-14c-0.2-0.8-0.3-1.4-0.5-2.1
		c-0.1-0.6-0.2-1.3-0.3-2.1c-0.1-0.8-0.1-1.6-0.2-2.4v-3.3v-1v-14.9v-1.1c0.1-1.5,0-2.6-0.1-3.2c-0.1-0.7-0.3-1.3-0.6-1.8
		c-0.4-0.8-1-1.4-1.9-1.8c-0.8-0.5-1.7-0.7-2.7-0.7c-1.7,0-3.6,0.8-5.6,2.3v19.4c0,1.4,0.1,2.3,0.4,2.9c0.3,0.5,1.1,0.9,2.2,1.2v8.8
		h-17.4L580.2,341L580.2,341z"/>
</g>
</svg>
