<svg id="logo" xmlns="http://www.w3.org/2000/svg" viewBox="0 0 120 120"><path id="circle" d="M119.94,60A60,60,0,1,1,60,0H60a60,60,0,0,1,60,60h0" transform="translate(0 0)" style="fill-rule:evenodd"/><g id="bars"><path d="M39.86,99V41.5s-.25-6.41,5.89-6.93c5.9-.25,5.9,5.56,5.9,5.56V65.08H68.82V41.5s0-6.43,6.14-6.93c5.46-.44,5.38,5.56,5.38,5.56V65.08H97.77V34.57s.76-15.13-14.34-15.13a17.74,17.74,0,0,0-15.9,8.73s-1.86-8.73-13.07-8.73c-11.54,0-14.87,7.44-14.87,7.44V21H22.17V99H39.86" transform="translate(0 0)" style="fill:#f9c623;fill-rule:evenodd"/></g><g id="typo"><path d="M70.52,87.91c0-2.82,1.41-5.9,4.23-5.9H76V76.37H74.56c-2.13,0-3.36,1.23-4.24,4.09h0V76.52h-5.5V99h5.65V87.91" transform="translate(0 0)" style="fill:#f9c623;fill-rule:evenodd"/><path d="M89.89,93.56c-.51,0-1.41.08-1.81.08A1.77,1.77,0,0,1,86,92.21a1.64,1.64,0,0,1,0-.73v-10h3.51V76.52H86V68.81H80.39v7.7H77.8v4.92h2.54v9.88c0,3.12.32,5.11,1.28,6.32h0c.89,1.13,2.39,1.57,4.78,1.57,1,0,2.44-.17,3.49-.21V93.56" transform="translate(0 0)" style="fill:#f9c623;fill-rule:evenodd"/><rect x="92.07" y="68.9" width="5.7" height="4.9" style="fill:#f9c623"/><path d="M50.32,92.54a2.82,2.82,0,0,1,2.35-2.82,13.3,13.3,0,0,0,3.51-1.22c.12,4.63-.76,6.62-3.49,6.62A2.24,2.24,0,0,1,50.31,93a3.09,3.09,0,0,1,0-.43m-4.23,5.06a5.55,5.55,0,0,0,4.53,2.05,7,7,0,0,0,5.18-2.09h0a7.24,7.24,0,0,0,.62-.73v.72h0A8.55,8.55,0,0,0,56.69,99h5.72A9.78,9.78,0,0,1,62,97.58h0a22.72,22.72,0,0,1-.28-4.36V83.34c0-6.36-4-7.54-8.1-7.54a9.38,9.38,0,0,0-5.53,1.57,7.4,7.4,0,0,0-2.7,6h5.31a2.82,2.82,0,0,1,2.82-2.82,2.5,2.5,0,0,1,2.75,2.23v.11A1.78,1.78,0,0,1,55,85.06l-.14,0c-4,1-10.11.48-10.11,7.79a7.48,7.48,0,0,0,1.41,4.75" transform="translate(0 0)" style="fill:#f9c623;fill-rule:evenodd"/><rect x="92.07" y="76.52" width="5.7" height="22.46" style="fill:#f9c623"/></g></svg>