<svg width="185" height="44" viewBox="0 0 185 44" fill="none" xmlns="http://www.w3.org/2000/svg">
<path d="M184.969 25.6399C184.969 28.1682 184.463 29.9211 183.014 31.438C181.43 33.191 179.137 34.2023 176.71 34.2023C174.418 34.2023 172.294 33.3258 170.71 31.7414C168.519 29.5503 168.485 27.3928 168.485 21.9992C168.485 16.5719 168.519 14.4482 170.71 12.257C172.294 10.6727 174.418 9.79621 176.71 9.79621C180.89 9.79621 184.194 12.5941 184.902 16.8079H183.081C182.373 13.4706 179.946 11.4143 176.71 11.4143C174.991 11.4143 173.373 12.0548 172.159 13.2683C170.44 14.9876 170.305 16.8753 170.305 21.9992C170.305 27.1232 170.44 29.0109 172.159 30.7301C173.373 31.9437 174.991 32.5842 176.71 32.5842C178.598 32.5842 180.452 31.7751 181.699 30.2582C182.744 28.9435 183.149 27.5614 183.149 25.5051V23.3476H176.71V21.7296H184.969V25.6399Z" fill="black"/>
<path d="M163.104 34L161.014 28.1682H149.822L147.732 34H145.777L154.609 9.99848H156.227L165.059 34H163.104ZM155.418 12.4256L150.395 26.5501H160.441L155.418 12.4256Z" fill="black"/>
<path d="M143.196 24.1567C143.196 27.6625 142.556 29.7188 140.904 31.4717C139.05 33.3595 136.825 34.2023 134.128 34.2023C131.566 34.2023 129.409 33.3258 127.656 31.5729C126.611 30.5279 125.971 29.3143 125.701 27.9659C125.431 26.6175 125.296 24.6286 125.296 21.9992C125.296 19.3699 125.431 17.381 125.701 16.0326C125.971 14.6505 126.611 13.4706 127.656 12.4256C129.409 10.6727 131.566 9.79621 134.128 9.79621C139.589 9.79621 142.522 13.3021 143.163 17.4821H138.443C137.87 15.1561 136.454 13.9763 134.128 13.9763C132.881 13.9763 131.87 14.4145 131.128 15.2572C130.252 16.3697 129.982 17.2461 129.982 21.9992C129.982 26.7186 130.184 27.6625 131.128 28.7749C131.836 29.6177 132.847 30.0222 134.128 30.0222C135.51 30.0222 136.623 29.584 137.466 28.6738C138.174 27.8648 138.544 26.7861 138.544 25.4714V24.5612H134.128V20.6508H143.196V24.1567Z" fill="black"/>
<path d="M120.02 34H115.334V9.99848H120.02V34Z" fill="black"/>
<path d="M110.424 26.9209C110.424 31.5729 106.548 34.2023 101.525 34.2023C97.8843 34.2023 95.1201 33.4269 92.7604 31.0335L95.7943 27.9996C97.3112 29.5166 99.3675 30.0222 101.592 30.0222C104.357 30.0222 105.84 28.9772 105.84 27.0557C105.84 26.213 105.604 25.5051 105.098 25.0331C104.626 24.5949 104.087 24.3589 102.974 24.1904L100.075 23.7859C98.0191 23.4825 96.5022 22.842 95.4235 21.797C94.2773 20.6508 93.7042 19.1002 93.7042 17.0776C93.7042 12.7964 96.873 9.79621 102.064 9.79621C105.368 9.79621 107.761 10.6053 109.818 12.5941L106.851 15.5269C105.334 14.0774 103.514 13.8751 101.929 13.8751C99.4349 13.8751 98.2214 15.2572 98.2214 16.909C98.2214 17.5158 98.4236 18.1563 98.9293 18.6282C99.4012 19.0665 100.177 19.4373 101.154 19.5721L103.986 19.9766C106.177 20.28 107.559 20.8868 108.57 21.8307C109.851 23.0442 110.424 24.7972 110.424 26.9209Z" fill="black"/>
<path d="M88.8325 34H84.1468V9.99848H88.8325V34Z" fill="black"/>
<path d="M79.0464 34H63.2364V9.99848H79.0464V14.1785H67.9221V19.8081H77.3946V23.9881H67.9221V29.82H79.0464V34Z" fill="black"/>
<path d="M58.8498 34H53.4225L48.7368 24.4264H45.3658V34H40.6801V9.99848H50.0852C54.9731 9.99848 57.8722 13.3358 57.8722 17.3473C57.8722 20.7183 55.8159 22.8083 53.4899 23.651L58.8498 34ZM53.1865 17.3473C53.1865 15.4932 51.8381 14.1785 49.7818 14.1785H45.3658V20.516H49.7818C51.8381 20.516 53.1865 19.2013 53.1865 17.3473Z" fill="black"/>
<path d="M36.2384 17.4821C36.2384 21.561 33.2719 24.9657 28.3165 24.9657H23.6983V34H19.0126V9.99848H28.3165C33.2719 9.99848 36.2384 13.4032 36.2384 17.4821ZM31.5527 17.4821C31.5527 15.5269 30.2043 14.1785 28.0806 14.1785H23.6983V20.752H28.0806C30.2043 20.752 31.5527 19.4373 31.5527 17.4821Z" fill="black"/>
<path d="M1.82034 11.6166V21.4936H12.675V23.1117H1.82034V34H0V9.99848H14.5627V11.6166H1.82034Z" fill="black"/>
<path d="M88.8325 5.31H84.1468V0.619995H88.8325V5.31Z" fill="black"/>
<path d="M120.02 43.38H115.334V38.69H120.02V43.38Z" fill="black"/>
</svg>
